<svg width="37" height="37" viewBox="0 0 37 37" fill="none" xmlns="http://www.w3.org/2000/svg">
<g clip-path="url(#clip0_2059_5550)">
<path d="M35.8429 3.36853L33.604 1.14492C32.1444 -0.304731 29.6843 -0.389282 28.1199 0.957026L24.1863 4.34412C24.1361 4.38748 24.0924 4.43878 24.0582 4.49515L20.228 10.8314L17.7686 11.6451C17.5605 11.7138 17.4041 11.885 17.3531 12.096C17.3022 12.3071 17.3662 12.5304 17.5212 12.6843L24.2234 19.34C24.3435 19.4592 24.5043 19.5235 24.6702 19.5235C24.7189 19.5235 24.767 19.5177 24.815 19.5069C25.0282 19.457 25.1999 19.3009 25.269 19.0942L26.0891 16.6509L32.5621 12.7688C32.6188 12.7349 32.6705 12.6915 32.7134 12.6417L36.043 8.80941C37.3928 7.25931 37.3026 4.81818 35.8429 3.36853ZM35.0884 7.99064L31.8242 11.747L25.2377 15.697C25.1089 15.7744 25.0122 15.8943 24.9649 16.036L24.3944 17.7349L22.8838 16.2347L22.8831 16.234L20.6493 14.0154L20.6486 14.0147L19.138 12.5145L20.8487 11.9479C20.992 11.9002 21.1128 11.8041 21.1907 11.6755L25.0893 5.22648L28.9479 1.90515C30.0212 0.980874 31.7093 1.03796 32.7105 2.03234L34.9494 4.25595C35.9514 5.25105 36.0132 6.92617 35.0884 7.99064Z" fill="#00A0FF"/>
<path d="M34.0518 25.2132C32.1963 23.3712 29.4663 22.7302 26.9923 23.5273L13.5639 10.1906C14.3657 7.7336 13.7211 5.02147 11.8663 3.17942C9.91192 1.23836 6.98611 0.63061 4.41176 1.63293C4.21311 1.71026 4.06759 1.88153 4.02393 2.08893C3.98027 2.29633 4.04503 2.51096 4.19565 2.66127L8.21508 6.65323L5.53449 9.3155L1.51506 5.32282C1.36444 5.17323 1.14761 5.10891 0.938778 5.15227C0.729948 5.19563 0.557499 5.34016 0.479643 5.53745C-0.528853 8.09348 0.0823565 10.9993 2.03677 12.9411C3.89223 14.7831 6.6223 15.4241 9.09624 14.6277L14.1176 19.6148L7.86436 25.8253L3.88714 28.0337C3.77654 28.0952 3.68704 28.1884 3.63028 28.3011L1.84322 31.8508C1.72171 32.0922 1.769 32.3841 1.96183 32.5749L4.19565 34.7935C4.31717 34.9142 4.4787 34.977 4.64242 34.977C4.73846 34.977 4.83524 34.9553 4.92474 34.9105L8.49886 33.1357C8.61237 33.0793 8.70623 32.9904 8.76808 32.8806L10.9917 28.9306L17.245 22.7208L22.5247 27.9644C21.7228 30.4214 22.3675 33.1328 24.223 34.9756C25.5516 36.2952 27.3299 36.9983 29.141 36.9983C29.9938 36.9983 30.8538 36.8422 31.6775 36.5221C31.8762 36.4447 32.0217 36.2735 32.0654 36.0661C32.109 35.8587 32.0443 35.644 31.8936 35.4937L27.8742 31.5018L30.5548 28.8395L34.5742 32.8315C34.7248 32.9811 34.9417 33.0454 35.1505 33.002C35.3593 32.9586 35.5318 32.8141 35.6096 32.6168C36.6174 30.0601 36.0062 27.1543 34.0518 25.2132ZM10.0363 28.1046C9.99487 28.1458 9.95994 28.1913 9.93156 28.2419L7.76031 32.0994L4.76757 33.5859L3.1777 32.0069L4.67443 29.0346L8.55852 26.8782C8.60946 26.85 8.65603 26.8153 8.69677 26.7742L15.0119 20.5022L16.3522 21.8334L10.0363 28.1046ZM34.7161 31.1975L31.0016 27.5084C30.7549 27.2634 30.3547 27.2634 30.108 27.5084L26.5339 31.0581C26.4153 31.1759 26.3491 31.3356 26.3491 31.5018C26.3491 31.668 26.416 31.8277 26.5339 31.9455L30.2485 35.6346C28.4068 35.9981 26.475 35.4366 25.1165 34.0882C23.5171 32.4998 23.0173 30.1222 23.8424 28.0301C23.9341 27.7982 23.8788 27.5337 23.7012 27.3573L9.70745 13.4592C9.58667 13.3392 9.42513 13.2757 9.26069 13.2757C9.18356 13.2757 9.10497 13.2901 9.03003 13.319C6.92426 14.1385 4.52963 13.642 2.9303 12.0536C1.57182 10.7044 1.00645 8.78579 1.37317 6.95675L5.08773 10.6459C5.33439 10.8909 5.73459 10.8909 5.98126 10.6459L9.55538 7.09622C9.80204 6.85124 9.80204 6.45378 9.55538 6.2088L5.84082 2.51963C7.68246 2.15542 9.61432 2.71764 10.9728 4.06612C12.5721 5.65452 13.072 8.03206 12.2469 10.1241C12.1552 10.3561 12.2105 10.6206 12.388 10.7969L26.3818 24.6951C26.5594 24.8714 26.8257 24.9263 27.0593 24.8353C29.1657 24.0158 31.5596 24.5122 33.159 26.1006C34.5167 27.4498 35.0821 29.3685 34.7161 31.1975Z" fill="#999999"/>
</g>
<defs>
<clipPath id="clip0_2059_5550">
<rect width="37" height="37" fill="white"/>
</clipPath>
</defs>
</svg>
