<svg width="25" height="35" viewBox="0 0 25 35" fill="none" xmlns="http://www.w3.org/2000/svg">
<g clip-path="url(#clip0_2059_5553)">
<path d="M24.3126 0H0.687406C0.307985 0 0 0.312402 0 0.697266V34.3027C0 34.6876 0.307985 35 0.687406 35H18.6516C18.8336 35 19.0088 34.9262 19.1375 34.7956L24.7985 29.0534C24.9272 28.9229 25 28.7451 25 28.5605V0.697266C25 0.312402 24.692 0 24.3126 0ZM19.3377 32.6211L19.335 29.2537L22.6547 29.2571L19.3377 32.6211ZM23.6252 27.8633L18.6476 27.8585H18.6469C18.4649 27.8585 18.2897 27.9323 18.161 28.0629C18.0323 28.1941 17.9595 28.3712 17.9595 28.5564L17.9642 33.6055H1.37481V1.39453H23.6252V27.8633Z" fill="#999999"/>
<path d="M7.04264 25.1562C5.31402 25.1562 3.9082 26.5822 3.9082 28.3356C3.9082 30.0891 5.31469 31.515 7.04264 31.515C8.77126 31.515 10.1771 30.0891 10.1771 28.3356C10.1777 26.5822 8.77126 25.1562 7.04264 25.1562ZM7.04264 30.1212C6.07218 30.1212 5.28234 29.32 5.28234 28.3356C5.28234 27.3513 6.07151 26.5508 7.04264 26.5508C8.01377 26.5508 8.80294 27.3513 8.80294 28.3356C8.80294 29.32 8.01309 30.1212 7.04264 30.1212Z" fill="#00A0FF"/>
<path d="M16.0052 27.75H12.2245C11.8451 27.75 11.5371 28.0624 11.5371 28.4473C11.5371 28.8321 11.8451 29.1445 12.2245 29.1445H16.0052C16.3847 29.1445 16.6927 28.8321 16.6927 28.4473C16.6927 28.0624 16.3853 27.75 16.0052 27.75Z" fill="#999999"/>
<path d="M6.79447 4.17969H4.80166C4.42224 4.17969 4.11426 4.49209 4.11426 4.87695C4.11426 5.26182 4.42224 5.57422 4.80166 5.57422H6.79514C7.17456 5.57422 7.48255 5.26182 7.48255 4.87695C7.48255 4.49209 7.17456 4.17969 6.79447 4.17969Z" fill="#999999"/>
<path d="M20.4733 4.17969H14.4936C14.1141 4.17969 13.8062 4.49209 13.8062 4.87695C13.8062 5.26182 14.1141 5.57422 14.4936 5.57422H20.4733C20.8527 5.57422 21.1607 5.26182 21.1607 4.87695C21.1607 4.49209 20.8527 4.17969 20.4733 4.17969Z" fill="#00A0FF"/>
<path d="M20.4731 7.17969H10.3002C9.92078 7.17969 9.61279 7.49209 9.61279 7.87695C9.61279 8.26182 9.92078 8.57422 10.3002 8.57422H20.4731C20.8525 8.57422 21.1605 8.26182 21.1605 7.87695C21.1605 7.49209 20.8525 7.17969 20.4731 7.17969Z" fill="#00A0FF"/>
<path d="M20.5078 12.6875H4.49258C4.11316 12.6875 3.80518 12.9999 3.80518 13.3848C3.80518 13.7696 4.11316 14.082 4.49258 14.082H20.5078C20.8872 14.082 21.1952 13.7696 21.1952 13.3848C21.1952 12.9999 20.8872 12.6875 20.5078 12.6875Z" fill="#999999"/>
<path d="M20.5078 15.0625H4.49258C4.11316 15.0625 3.80518 15.3749 3.80518 15.7598C3.80518 16.1446 4.11316 16.457 4.49258 16.457H20.5078C20.8872 16.457 21.1952 16.1446 21.1952 15.7598C21.1952 15.3749 20.8872 15.0625 20.5078 15.0625Z" fill="#999999"/>
<path d="M20.5078 17.6406H4.49258C4.11316 17.6406 3.80518 17.953 3.80518 18.3379C3.80518 18.7228 4.11316 19.0352 4.49258 19.0352H20.5078C20.8872 19.0352 21.1952 18.7228 21.1952 18.3379C21.1952 17.953 20.8872 17.6406 20.5078 17.6406Z" fill="#999999"/>
<path d="M20.5079 20.0078H20.1298C19.7504 20.0078 19.4424 20.3202 19.4424 20.7051C19.4424 21.0899 19.7504 21.4023 20.1298 21.4023H20.5079C20.8873 21.4023 21.1953 21.0899 21.1953 20.7051C21.1953 20.3195 20.8873 20.0078 20.5079 20.0078Z" fill="#999999"/>
<path d="M17.7238 20.0078H4.49258C4.11316 20.0078 3.80518 20.3202 3.80518 20.7051C3.80518 21.0899 4.11316 21.4023 4.49258 21.4023H17.7245C18.1039 21.4023 18.4119 21.0899 18.4119 20.7051C18.4112 20.3195 18.1032 20.0078 17.7238 20.0078Z" fill="#999999"/>
</g>
<defs>
<clipPath id="clip0_2059_5553">
<rect width="25" height="35" fill="white"/>
</clipPath>
</defs>
</svg>
