<svg width="98" height="98" viewBox="0 0 98 98" fill="none" xmlns="http://www.w3.org/2000/svg">
<g clip-path="url(#clip0_2153_2180)">
<path d="M41.248 46.9945H42.7485C42.7485 43.2715 45.7773 40.2426 49.5004 40.2426V38.7422C44.9503 38.7422 41.248 42.4444 41.248 46.9945Z" fill="#CCCCCC"/>
<path d="M62.5046 59.7498H61.7544V46.9954C61.7544 40.2395 56.2571 34.7422 49.5004 34.7422C42.7437 34.7422 37.2464 40.2395 37.2464 46.9954V59.749H36.4962C34.9797 59.749 33.7451 60.9828 33.7451 62.5V68.2519H65.2548V62.5C65.2548 60.9836 64.021 59.7498 62.5046 59.7498ZM38.7468 46.9954C38.7468 41.0657 43.5707 36.2426 49.5004 36.2426C55.43 36.2426 60.2539 41.0665 60.2539 46.9954V59.749H38.7468V46.9954ZM63.7544 63.2511H56.2018V64.7515H63.7544V66.7523H35.2463V64.7515H43.2985V63.2511H35.2463V62.5008C35.2463 61.8115 35.8068 61.2502 36.497 61.2502H62.5046C63.1939 61.2502 63.7552 61.8107 63.7552 62.5008V63.2511H63.7544Z" fill="#CCCCCC"/>
<path d="M69.3929 39.1797L68.332 40.2406C73.8894 45.7987 73.8894 54.8413 68.332 60.3994L69.3929 61.4603C75.5355 55.3169 75.5355 45.3223 69.3929 39.1797Z" fill="#CCCCCC"/>
<path d="M66.4456 42.125L65.3848 43.1859C69.3176 47.1187 69.3176 53.5175 65.3848 57.4503L66.4456 58.5112C70.9629 53.9939 70.9629 46.6431 66.4456 42.125Z" fill="#CCCCCC"/>
<path d="M30.6678 40.2414L29.607 39.1797C23.4643 45.3223 23.4643 55.3177 29.607 61.4603L30.6678 60.3994C25.1105 54.8421 25.1105 45.7987 30.6678 40.2414Z" fill="#CCCCCC"/>
<path d="M33.6148 43.1867L32.554 42.125C28.0367 46.6423 28.0367 53.9939 32.554 58.5112L33.6148 57.4503C29.682 53.5183 29.682 47.1187 33.6148 43.1867Z" fill="#CCCCCC"/>
<path d="M51.7505 57.5692V54.0159C52.6609 53.3306 53.251 52.2417 53.251 51.0167C53.251 48.9486 51.568 47.2656 49.4999 47.2656C47.4318 47.2656 45.7488 48.9486 45.7488 51.0167C45.7488 52.2409 46.3389 53.3306 47.2493 54.0159V57.5692H45.499V59.0697H53.5016V57.5692H51.7505ZM50.2501 57.5692H48.7497V54.6933C48.9923 54.7429 49.2429 54.7685 49.4999 54.7685C49.7569 54.7685 50.0075 54.7421 50.2501 54.6933V57.5692ZM49.4999 53.2681C48.2589 53.2681 47.2493 52.2585 47.2493 51.0175C47.2493 49.7765 48.2589 48.7669 49.4999 48.7669C50.7409 48.7669 51.7505 49.7765 51.7505 51.0175C51.7505 52.2585 50.7409 53.2681 49.4999 53.2681Z" fill="#CCCCCC"/>
<path d="M46.9994 63.25H45.499V64.7504H46.9994V63.25Z" fill="#CCCCCC"/>
<path d="M54.0014 63.25H52.501V64.7504H54.0014V63.25Z" fill="#CCCCCC"/>
<path d="M50.5004 63.25H49V64.7504H50.5004V63.25Z" fill="#CCCCCC"/>
</g>
<path d="M72.9227 7.56475L96.8453 49L72.9226 90.4353L25.0774 90.4353L1.15471 49L25.0774 7.56475L72.9227 7.56475Z" stroke="#CCCCCC" stroke-width="2"/>
<defs>
<clipPath id="clip0_2153_2180">
<rect width="49" height="33.5098" fill="white" transform="translate(25 34.7422)"/>
</clipPath>
</defs>
</svg>
