<svg width="24" height="25" viewBox="0 0 24 25" fill="none" xmlns="http://www.w3.org/2000/svg">
<g clip-path="url(#clip0_2059_1371)">
<path d="M8 23.6641C9.10457 23.6641 10 22.7686 10 21.6641C10 20.5595 9.10457 19.6641 8 19.6641C6.89543 19.6641 6 20.5595 6 21.6641C6 22.7686 6.89543 23.6641 8 23.6641Z" stroke="white" stroke-width="1.59292" stroke-linecap="round" stroke-linejoin="round"/>
<path d="M20 23.6641C21.1046 23.6641 22 22.7686 22 21.6641C22 20.5595 21.1046 19.6641 20 19.6641C18.8954 19.6641 18 20.5595 18 21.6641C18 22.7686 18.8954 23.6641 20 23.6641Z" stroke="white" stroke-width="1.59292" stroke-linecap="round" stroke-linejoin="round"/>
<path d="M5.67 6.66406H23L21.32 15.0541C21.2286 15.5145 20.9781 15.928 20.6125 16.2224C20.2468 16.5167 19.7893 16.6731 19.32 16.6641H8.75C8.26168 16.6682 7.78873 16.4935 7.42031 16.173C7.05189 15.8525 6.81347 15.4083 6.75 14.9241L5.23 3.40406C5.16697 2.9233 4.93142 2.48181 4.5672 2.16173C4.20298 1.84166 3.73488 1.6648 3.25 1.66406H1" stroke="white" stroke-width="1.59292" stroke-linecap="round" stroke-linejoin="round"/>
</g>
<defs>
<clipPath id="clip0_2059_1371">
<rect width="24" height="24" fill="white" transform="translate(0 0.664062)"/>
</clipPath>
</defs>
</svg>
