<svg width="100" height="100" viewBox="0 0 100 100" fill="none" xmlns="http://www.w3.org/2000/svg">
<g clip-path="url(#clip0_2059_984)">
<path d="M50 48C45.578 48 42 51.584 42 56C42 60.416 45.578 64 50 64C54.422 64 58 60.416 58 56C58 51.582 54.422 48 50 48Z" stroke="#009EFF" stroke-width="2" stroke-miterlimit="10" stroke-linecap="round" stroke-linejoin="round"/>
<path d="M89.918 82.676C92.6312 78.6201 94.7436 74.129 96.1273 69.328C97.3466 65.0974 98 60.6261 98 56C98 54.8796 97.9617 53.7682 97.8863 52.667C97.6505 49.2206 97.0515 45.8746 96.1273 42.667C95.6352 40.9592 95.051 39.2906 94.3803 37.667C94.0309 36.8212 93.6581 35.9876 93.2626 35.167C92.6019 33.7961 91.8779 32.4615 91.0945 31.167C82.6881 17.2761 67.4362 8 50 8C23.472 8 2 29.472 2 56C2 65.872 4.976 75.042 10.074 82.664" stroke="#999999" stroke-width="2" stroke-miterlimit="10" stroke-linecap="round" stroke-linejoin="round"/>
<path d="M86 78.6357C86.3466 78.124 86.6817 77.6041 87.0049 77.0763C87.5899 76.1211 88.1362 75.1402 88.6415 74.1357C89.2931 72.8402 89.8766 71.5053 90.3874 70.1357C90.7251 69.2301 91.031 68.3094 91.3038 67.3747C91.5665 66.4742 91.7985 65.5608 91.9985 64.6357C92.1768 63.8114 92.3296 62.9778 92.4562 62.1357C92.6144 61.0837 92.7316 60.0184 92.8063 58.9415C92.8707 58.0129 92.9034 57.0756 92.9034 56.1306M89.8116 40.6641C90.3844 42.0338 90.8835 43.4415 91.3038 44.8823C91.5665 45.7831 91.7985 46.6968 91.9985 47.6222C92.2128 48.6137 92.3904 49.6187 92.5298 50.6357" stroke="#009EFF" stroke-width="2" stroke-miterlimit="10" stroke-linecap="round" stroke-linejoin="round"/>
<path d="M80.6211 26.6016C81.6241 27.6963 82.5705 28.8517 83.4539 30.0649C84.0063 30.8235 84.5341 31.6046 85.0358 32.4076C85.5732 33.2678 86.0807 34.1532 86.5564 35.0629" stroke="#009EFF" stroke-width="2" stroke-miterlimit="10" stroke-linecap="round" stroke-linejoin="round"/>
<path d="M45.3809 49.4562L77.9896 33.6953L55.7069 61.6844" stroke="#009EFF" stroke-width="2"/>
</g>
<defs>
<clipPath id="clip0_2059_984">
<rect width="100" height="100" fill="white"/>
</clipPath>
</defs>
</svg>
