<svg width="104" height="104" viewBox="0 0 104 104" fill="none" xmlns="http://www.w3.org/2000/svg">
<g clip-path="url(#clip0_2059_938)">
<path d="M43.68 6.23968L43.68 12.4797L35.36 12.4797C30.7653 12.4797 27.04 16.205 27.04 20.7997L27.04 87.3597C27.04 91.9544 30.7653 95.6797 35.36 95.6797L68.64 95.6797C73.2348 95.6797 76.96 91.9544 76.96 87.3597L76.96 20.7997C76.96 16.205 73.2348 12.4797 68.64 12.4797L60.32 12.4797L60.32 6.23968L43.68 6.23968Z" stroke="#999999" stroke-width="2" stroke-miterlimit="10" stroke-linecap="round" stroke-linejoin="round"/>
<path d="M53.1693 75.2966C53.3727 75.7441 53.8712 75.9774 54.3451 75.8469C54.819 75.7165 55.1279 75.2609 55.0736 74.7724L53.117 57.1628L60.3197 57.1628C60.6597 57.1628 60.9764 56.9901 61.1605 56.7042C61.3445 56.4183 61.3707 56.0585 61.2301 55.749L50.8301 32.869C50.6266 32.4215 50.1282 32.1882 49.6543 32.3187C49.1803 32.4492 48.8715 32.9047 48.9258 33.3932L50.8824 51.0028L43.6797 51.0028C43.3397 51.0028 43.023 51.1756 42.8389 51.4614C42.6548 51.7473 42.6286 52.1071 42.7693 52.4166L53.1693 75.2966Z" stroke="#009EFF" stroke-width="2" stroke-linejoin="round"/>
<path d="M32 22V52" stroke="#009EFF" stroke-width="2" stroke-linecap="round"/>
<path d="M32 58V69" stroke="#009EFF" stroke-width="2" stroke-linecap="round"/>
</g>
<defs>
<clipPath id="clip0_2059_938">
<rect width="104" height="104" fill="white" transform="translate(0 104) rotate(-90)"/>
</clipPath>
</defs>
</svg>
