<svg width="90" height="90" viewBox="0 0 90 90" fill="none" xmlns="http://www.w3.org/2000/svg">
<path d="M61.6922 57.4141C60.4699 58.3413 59.4724 59.5321 58.7737 60.8979C58.0749 62.2637 57.693 63.7694 57.6562 65.3031" stroke="#009EFF" stroke-width="2" stroke-linecap="round" stroke-linejoin="round"/>
<path d="M49.2188 76.5859V80.1578C49.2188 80.9037 48.9224 81.6191 48.395 82.1466C47.8675 82.674 47.1522 82.9703 46.4062 82.9703H43.5938C42.8478 82.9703 42.1325 82.674 41.605 82.1466C41.0776 81.6191 40.7812 80.9037 40.7812 80.1578V76.5859C41.6358 77.0817 42.6058 77.3436 43.5938 77.3453H46.4062C47.3942 77.3436 48.3642 77.0817 49.2188 76.5859V76.5859Z" stroke="#999999" stroke-width="2" stroke-linecap="round" stroke-linejoin="round"/>
<path d="M52.0312 66.0938V71.7188C52.0312 73.2106 51.4386 74.6413 50.3837 75.6962C49.3288 76.7511 47.8981 77.3438 46.4062 77.3438H43.5938C42.1019 77.3438 40.6712 76.7511 39.6163 75.6962C38.5614 74.6413 37.9688 73.2106 37.9688 71.7188V66.0938H52.0312Z" stroke="#999999" stroke-width="2" stroke-linecap="round" stroke-linejoin="round"/>
<path d="M66.0942 36.3076C66.1317 39.513 65.4382 42.6848 64.0664 45.582C62.6945 48.4793 60.6804 51.0257 58.177 53.0279C56.2955 54.4805 54.7658 56.3387 53.7019 58.4642C52.6379 60.5897 52.067 62.9278 52.0317 65.3045V66.092H37.9692V65.3045C37.9945 63.0054 37.4902 60.7313 36.4952 58.6584C35.5003 56.5856 34.0414 54.7696 32.2317 53.3514C29.3833 51.1848 27.133 48.3291 25.6925 45.0531C24.252 41.7771 23.6687 38.1885 23.9974 34.6249C24.3261 31.0613 25.5561 27.6399 27.5716 24.6827C29.5871 21.7255 32.3219 19.3297 35.5185 17.7208C38.7152 16.1118 42.2686 15.3426 45.8445 15.4856C49.4203 15.6285 52.901 16.6789 55.9591 18.5379C59.0171 20.3968 61.5519 23.0032 63.3249 26.1119C65.0979 29.2205 66.0509 32.7292 66.0942 36.3076V36.3076Z" stroke="#999999" stroke-width="2" stroke-linecap="round" stroke-linejoin="round"/>
<path d="M42.1875 66.0938V49.2188" stroke="#999999" stroke-width="2" stroke-linecap="round" stroke-linejoin="round"/>
<path d="M47.8125 66.0938V49.2188" stroke="#999999" stroke-width="2" stroke-linecap="round" stroke-linejoin="round"/>
<path d="M42.1875 49.2188L33.75 40.7812" stroke="#999999" stroke-width="2" stroke-linecap="round" stroke-linejoin="round"/>
<path d="M47.8125 49.2188L56.25 40.7812" stroke="#999999" stroke-width="2" stroke-linecap="round" stroke-linejoin="round"/>
<path d="M36.5625 21.9516C39.126 20.4656 42.037 19.6845 45 19.6875" stroke="#009EFF" stroke-width="2" stroke-linecap="round" stroke-linejoin="round"/>
<path d="M28.125 36.5594C28.1254 32.7744 29.3983 29.0994 31.7391 26.125" stroke="#009EFF" stroke-width="2" stroke-linecap="round" stroke-linejoin="round"/>
<path d="M45 11.25V5.625" stroke="#009EFF" stroke-width="2" stroke-linecap="round" stroke-linejoin="round"/>
<path d="M27.0988 18.6594L23.1191 14.6797" stroke="#009EFF" stroke-width="2" stroke-linecap="round" stroke-linejoin="round"/>
<path d="M19.6875 36.5625H14.0625" stroke="#009EFF" stroke-width="2" stroke-linecap="round" stroke-linejoin="round"/>
<path d="M70.3125 36.5625H75.9375" stroke="#009EFF" stroke-width="2" stroke-linecap="round" stroke-linejoin="round"/>
<path d="M62.9014 18.6594L66.8811 14.6797" stroke="#009EFF" stroke-width="2" stroke-linecap="round" stroke-linejoin="round"/>
<path d="M37.9688 70.3125H52.0312" stroke="#999999" stroke-width="2" stroke-linecap="round" stroke-linejoin="round"/>
</svg>
