<svg width="27" height="17" viewBox="0 0 27 17" fill="none" xmlns="http://www.w3.org/2000/svg">
<g clip-path="url(#clip0_2059_1250)">
<path opacity="0.07" d="M24.1883 0H2.69382C1.55193 0 0.678711 0.873214 0.678711 2.01511V14.1058C0.678711 15.2477 1.6191 16.1209 2.69382 16.1209H24.1883C25.3302 16.1209 26.2034 15.2477 26.2034 14.1058V2.01511C26.2034 0.873214 25.2631 0 24.1883 0Z" fill="black"/>
<path d="M24.1885 0.671875C24.9274 0.671875 25.5319 1.27641 25.5319 2.01528V14.1059C25.5319 14.8448 24.9274 15.4493 24.1885 15.4493H2.69399C1.95512 15.4493 1.35059 14.8448 1.35059 14.1059V2.01528C1.35059 1.27641 1.95512 0.671875 2.69399 0.671875H24.1885Z" fill="white"/>
<path d="M13.4406 13.5706C16.4825 13.5706 18.9486 11.1046 18.9486 8.06265C18.9486 5.02069 16.4825 2.55469 13.4406 2.55469C10.3986 2.55469 7.93262 5.02069 7.93262 8.06265C7.93262 11.1046 10.3986 13.5706 13.4406 13.5706Z" fill="#1652F0"/>
<path d="M14.7709 8.77154C14.7709 8.07632 14.3484 7.8419 13.5302 7.72905C12.9257 7.64173 12.8081 7.50067 12.8081 7.21856C12.8081 6.93644 13.013 6.76046 13.4046 6.76046C13.7606 6.76046 13.9668 6.88405 14.0515 7.17154C14.0604 7.20291 14.0792 7.23056 14.1051 7.2504C14.131 7.27024 14.1626 7.28122 14.1952 7.2817H14.5082C14.5287 7.28198 14.5489 7.27776 14.5675 7.26936C14.5862 7.26096 14.6027 7.24857 14.6161 7.23307C14.6294 7.21757 14.6391 7.19933 14.6446 7.17965C14.6502 7.15996 14.6513 7.13931 14.6479 7.11915C14.5485 6.66575 14.2429 6.39236 13.7633 6.30706V5.82881C13.7633 5.78937 13.7477 5.75155 13.7199 5.7236C13.692 5.69565 13.6543 5.67987 13.6149 5.67969H13.3159C13.2764 5.67969 13.2385 5.6954 13.2105 5.72336C13.1825 5.75133 13.1668 5.78926 13.1668 5.82881V6.29027C12.5717 6.37423 12.1949 6.76717 12.1949 7.2723C12.1949 7.92385 12.5925 8.17775 13.4227 8.28993C13.987 8.38262 14.1482 8.50487 14.1482 8.82527C14.1482 9.14635 13.8755 9.36129 13.4899 9.36129C12.9707 9.36129 12.7947 9.13426 12.7363 8.83938C12.7295 8.80547 12.7112 8.77493 12.6845 8.75291C12.6579 8.73089 12.6244 8.71873 12.5898 8.71847H12.2506C12.2304 8.71819 12.2103 8.72237 12.1918 8.73071C12.1733 8.73904 12.1569 8.75133 12.1437 8.76671C12.1305 8.78209 12.1209 8.80017 12.1154 8.8197C12.11 8.83922 12.1089 8.85969 12.1123 8.87968C12.1996 9.37674 12.518 9.73946 13.1668 9.82678V10.2983C13.1668 10.3379 13.1825 10.3758 13.2105 10.4038C13.2385 10.4317 13.2764 10.4474 13.3159 10.4474H13.6149C13.6543 10.4473 13.692 10.4315 13.7199 10.4035C13.7477 10.3756 13.7633 10.3378 13.7633 10.2983V9.82813C14.3793 9.73006 14.7709 9.30487 14.7709 8.77154Z" fill="white"/>
<path d="M12.3127 11.1505C11.68 10.9188 11.1337 10.4984 10.7477 9.94603C10.3618 9.3937 10.1548 8.73614 10.1548 8.06233C10.1548 7.38851 10.3618 6.73096 10.7477 6.17863C11.1337 5.6263 11.68 5.20585 12.3127 4.97417C12.3533 4.95632 12.388 4.92749 12.4131 4.89093C12.4381 4.85438 12.4524 4.81155 12.4544 4.76729V4.45965C12.4572 4.43248 12.4527 4.40507 12.4414 4.3802C12.4301 4.35533 12.4125 4.33387 12.3903 4.31799C12.3681 4.30211 12.342 4.29238 12.3149 4.28977C12.2877 4.28716 12.2603 4.29178 12.2355 4.30314C11.438 4.55735 10.7421 5.05856 10.2483 5.73432C9.75444 6.41007 9.48828 7.22536 9.48828 8.06233C9.48828 8.8993 9.75444 9.71458 10.2483 10.3903C10.7421 11.0661 11.438 11.5673 12.2355 11.8215C12.2603 11.8329 12.2877 11.8375 12.3149 11.8349C12.342 11.8323 12.3681 11.8225 12.3903 11.8067C12.4125 11.7908 12.4301 11.7693 12.4414 11.7445C12.4527 11.7196 12.4572 11.6922 12.4544 11.665V11.3587C12.4526 11.3144 12.4385 11.2715 12.4135 11.2348C12.3886 11.1981 12.3539 11.1692 12.3134 11.1512L12.3127 11.1505ZM14.6462 4.30381C14.6214 4.29267 14.594 4.28822 14.567 4.29092C14.5399 4.29362 14.514 4.30337 14.4918 4.31921C14.4697 4.33504 14.452 4.3564 14.4407 4.38116C14.4294 4.40591 14.4247 4.43321 14.4272 4.46032V4.76729C14.4291 4.81159 14.4434 4.85449 14.4684 4.89107C14.4935 4.92765 14.5283 4.95645 14.569 4.97417C15.2019 5.20572 15.7485 5.62615 16.1346 6.17856C16.5207 6.73097 16.7278 7.38868 16.7278 8.06266C16.7278 8.73665 16.5207 9.39436 16.1346 9.94676C15.7485 10.4992 15.2019 10.9196 14.569 11.1512C14.527 11.1671 14.491 11.1956 14.4658 11.2327C14.4405 11.2698 14.4273 11.3138 14.4279 11.3587V11.6657C14.4254 11.6928 14.4301 11.7201 14.4414 11.7448C14.4527 11.7696 14.4703 11.791 14.4925 11.8068C14.5146 11.8226 14.5405 11.8324 14.5676 11.8351C14.5947 11.8378 14.622 11.8333 14.6469 11.8222C15.4443 11.568 16.1402 11.0668 16.6341 10.391C17.1279 9.71526 17.3941 8.89997 17.3941 8.063C17.3941 7.22603 17.1279 6.41074 16.6341 5.73499C16.1402 5.05923 15.4443 4.55803 14.6469 4.30381H14.6462Z" fill="white"/>
</g>
<defs>
<clipPath id="clip0_2059_1250">
<rect width="25.5247" height="16.1209" fill="white" transform="translate(0.678711)"/>
</clipPath>
</defs>
</svg>
