<svg width="27" height="17" viewBox="0 0 27 17" fill="none" xmlns="http://www.w3.org/2000/svg">
<g clip-path="url(#clip0_2059_1169)">
<path d="M23.9956 0H3.32442C3.23831 0 3.15205 0 3.06609 0.000456402C2.99353 0.00106494 2.92111 0.00182561 2.84854 0.00380335C2.69048 0.0080631 2.53104 0.0174954 2.37495 0.0454881C2.21841 0.0723077 2.06674 0.1223 1.92494 0.193819C1.63986 0.338814 1.40815 0.570527 1.26315 0.855601C1.19151 0.997461 1.14151 1.14925 1.11482 1.30592C1.08653 1.46216 1.07725 1.62144 1.07299 1.77936C1.07113 1.85186 1.07002 1.92438 1.06964 1.99691C1.06934 2.08271 1.06934 2.16882 1.06934 2.25508V13.8656C1.06934 13.9519 1.06934 14.0379 1.06964 14.1241C1.0701 14.1965 1.07101 14.2691 1.07299 14.3417C1.07725 14.4993 1.08668 14.6587 1.11482 14.8148C1.14146 14.9715 1.1914 15.1233 1.263 15.2651C1.33499 15.4068 1.42895 15.5362 1.54141 15.6485C1.65367 15.761 1.78307 15.855 1.92479 15.9269C2.06886 16.0004 2.21643 16.0471 2.3751 16.0755C2.53104 16.1034 2.69048 16.1128 2.84854 16.1171C2.92111 16.1187 2.99353 16.1197 3.06609 16.1201C3.15205 16.1207 3.23831 16.1207 3.32442 16.1207H23.9956C24.0816 16.1207 24.1678 16.1207 24.2538 16.1201C24.3262 16.1198 24.3986 16.1187 24.4715 16.1171C24.6293 16.1128 24.7887 16.1034 24.9451 16.0755C25.1017 16.0487 25.2533 15.9986 25.3951 15.9269C25.68 15.7817 25.9117 15.5501 26.0569 15.2651C26.1304 15.1211 26.1769 14.9735 26.2051 14.8148C26.2334 14.6587 26.2425 14.4993 26.2467 14.3417C26.2487 14.2691 26.2498 14.1965 26.2501 14.1241C26.2507 14.0379 26.2507 13.9519 26.2507 13.8656V2.25523C26.2507 2.16897 26.2507 2.08287 26.2501 1.99676C26.2498 1.92428 26.2487 1.85181 26.2467 1.77936C26.2425 1.62144 26.2334 1.46216 26.2051 1.30592C26.1786 1.14922 26.1286 0.997413 26.0569 0.855601C25.9118 0.570577 25.6801 0.338883 25.3951 0.193819C25.2533 0.122374 25.1016 0.0724337 24.9451 0.0456402C24.7887 0.0174954 24.6293 0.00821523 24.4715 0.00395548C24.3989 0.00211273 24.3264 0.000997022 24.2538 0.000608536C24.1678 0 24.0816 0 23.9956 0Z" fill="black"/>
<path d="M23.9964 0.539062L24.2507 0.539519C24.3195 0.539975 24.3884 0.540736 24.4576 0.542562C24.5783 0.545909 24.7192 0.55245 24.8506 0.576031C24.9647 0.596569 25.0605 0.627757 25.1524 0.674614C25.3363 0.768109 25.4857 0.917663 25.579 1.10165C25.6256 1.19293 25.6566 1.28817 25.6771 1.40334C25.7006 1.53326 25.7071 1.67459 25.7103 1.79584C25.7123 1.8643 25.7132 1.93276 25.7134 2.00274C25.7141 2.08748 25.7141 2.17207 25.7141 2.25696V13.8675C25.7141 13.9524 25.7141 14.037 25.7135 14.1234C25.7132 14.1919 25.7123 14.2603 25.7105 14.3288C25.7071 14.4499 25.7006 14.5912 25.6768 14.7227C25.6596 14.8272 25.6265 14.9285 25.5787 15.0231C25.4852 15.2072 25.3356 15.3567 25.1515 15.4502C25.0602 15.4967 24.9647 15.5279 24.8517 15.5483C24.7176 15.5722 24.5707 15.5787 24.4601 15.5818C24.3906 15.5833 24.3213 15.5844 24.2503 15.5847C24.1658 15.5853 24.081 15.5853 23.9964 15.5853H3.32182C3.23815 15.5853 3.15447 15.5853 3.06928 15.5847C3.00081 15.5844 2.93235 15.5834 2.8639 15.5819C2.75071 15.5789 2.60375 15.5722 2.47078 15.5485C2.36565 15.5309 2.26379 15.4976 2.16864 15.4496C2.07738 15.4032 1.99408 15.3426 1.92188 15.27C1.84945 15.1977 1.78896 15.1144 1.74267 15.0231C1.69486 14.928 1.66173 14.8262 1.64439 14.7211C1.62066 14.5899 1.61396 14.4491 1.61092 14.3289C1.6092 14.2602 1.60819 14.1915 1.60788 14.1228L1.60742 13.9209V2.20371L1.60773 2.00214C1.60804 1.93331 1.60905 1.86449 1.61077 1.79569C1.61412 1.6752 1.62066 1.53448 1.64454 1.40212C1.66191 1.29728 1.69505 1.19567 1.74282 1.10074C1.78907 1.00977 1.84931 0.9267 1.92234 0.853828C1.99472 0.781337 2.0781 0.72075 2.1694 0.67431C2.26432 0.626627 2.36586 0.593497 2.47063 0.576031C2.60223 0.55245 2.74325 0.545909 2.86405 0.542562C2.93281 0.540736 3.00173 0.539975 3.07004 0.539519L3.32517 0.539062H23.9964Z" fill="white"/>
<path d="M7.68946 5.44504C7.90305 5.17804 8.04788 4.81946 8.0097 4.45312C7.69722 4.46864 7.31597 4.65927 7.09507 4.92657C6.89684 5.15538 6.72143 5.52886 6.76707 5.87984C7.11789 5.91026 7.46841 5.70458 7.68946 5.44504Z" fill="black"/>
<path d="M8.0058 5.94736C7.49615 5.91693 7.06317 6.23641 6.81991 6.23641C6.5765 6.23641 6.20392 5.96257 5.80092 5.97002C5.27651 5.97763 4.78999 6.27429 4.52375 6.74591C3.97637 7.68914 4.37922 9.08877 4.91169 9.85705C5.17017 10.2374 5.48174 10.6558 5.8922 10.6407C6.28014 10.6255 6.43212 10.3897 6.90343 10.3897C7.37459 10.3897 7.51151 10.6407 7.92212 10.6331C8.34779 10.6255 8.61403 10.2527 8.8725 9.87241C9.16916 9.43883 9.29041 9.02046 9.29802 8.99764C9.29041 8.99004 8.47711 8.67801 8.4695 7.74238C8.46189 6.95889 9.10816 6.58617 9.13858 6.56319C8.77362 6.02342 8.20342 5.96257 8.00564 5.94736" fill="black"/>
<path d="M13.0846 4.89062C14.1919 4.89062 14.963 5.65388 14.963 6.76507C14.963 7.88021 14.176 8.64742 13.0569 8.64742H11.831V10.5972H10.9453V4.89062H13.0846ZM11.831 7.90394H12.8473C13.6186 7.90394 14.0574 7.48877 14.0574 6.76902C14.0574 6.04943 13.6185 5.63806 12.8512 5.63806H11.831V7.90394Z" fill="black"/>
<path d="M15.1826 9.41561C15.1826 8.684 15.7402 8.26487 16.7683 8.20158L17.8716 8.13434V7.8179C17.8716 7.35541 17.5672 7.10226 17.0254 7.10226C16.5784 7.10226 16.2541 7.33153 16.1872 7.68341H15.3881C15.412 6.94404 16.1079 6.40625 17.0491 6.40625C18.0614 6.40625 18.7219 6.93613 18.7219 7.75872V10.598H17.9034V9.91385H17.8836C17.6502 10.3607 17.136 10.6414 16.5784 10.6414C15.756 10.6414 15.1826 10.1512 15.1826 9.41561ZM17.8716 9.0479V8.72751L16.887 8.7908C16.3332 8.8264 16.0448 9.03193 16.0448 9.39173C16.0448 9.73981 16.3452 9.96527 16.8158 9.96527C17.4167 9.96527 17.8716 9.58159 17.8716 9.0479Z" fill="black"/>
<path d="M19.4748 12.1198V11.4358C19.5302 11.4436 19.6646 11.4515 19.7358 11.4515C20.1272 11.4515 20.3487 11.2857 20.4832 10.8583L20.5623 10.6053L19.0635 6.45312H19.9888L21.0328 9.82228H21.0526L22.0966 6.45312H22.9983L21.4441 10.8148C21.0881 11.8154 20.6808 12.1437 19.8188 12.1437C19.7516 12.1437 19.534 12.1358 19.4748 12.1198Z" fill="black"/>
</g>
<defs>
<clipPath id="clip0_2059_1169">
<rect width="25.5247" height="16.1209" fill="white" transform="translate(0.898438)"/>
</clipPath>
</defs>
</svg>
