<svg width="27" height="17" viewBox="0 0 27 17" fill="none" xmlns="http://www.w3.org/2000/svg">
<g clip-path="url(#clip0_2059_1238)">
<path opacity="0.07" d="M24.3915 0H2.89695C1.75505 0 0.881836 0.873214 0.881836 2.01511V14.1058C0.881836 15.2477 1.82222 16.1209 2.89695 16.1209H24.3915C25.5333 16.1209 26.4066 15.2477 26.4066 14.1058V2.01511C26.4066 0.873214 25.4662 0 24.3915 0Z" fill="black"/>
<path d="M24.3916 0.671875C25.1305 0.671875 25.735 1.27641 25.735 2.01528V14.1059C25.735 14.8448 25.1305 15.4493 24.3916 15.4493H2.89712C2.15824 15.4493 1.55371 14.8448 1.55371 14.1059V2.01528C1.55371 1.27641 2.15824 0.671875 2.89712 0.671875H24.3916Z" fill="white"/>
<path d="M10.9578 12.7632C13.5546 12.7632 15.6597 10.6581 15.6597 8.0613C15.6597 5.4645 13.5546 3.35938 10.9578 3.35938C8.36098 3.35938 6.25586 5.4645 6.25586 8.0613C6.25586 10.6581 8.36098 12.7632 10.9578 12.7632Z" fill="#EB001B"/>
<path d="M16.3308 12.7632C18.9276 12.7632 21.0328 10.6581 21.0328 8.0613C21.0328 5.4645 18.9276 3.35938 16.3308 3.35938C13.734 3.35938 11.6289 5.4645 11.6289 8.0613C11.6289 10.6581 13.734 12.7632 16.3308 12.7632Z" fill="#F79E1B"/>
<path d="M15.6591 8.06308C15.6591 6.451 14.8531 5.04042 13.644 4.23438C12.435 5.10759 11.6289 6.51817 11.6289 8.06308C11.6289 9.608 12.435 11.0857 13.644 11.8918C14.8531 11.0857 15.6591 9.67517 15.6591 8.06308Z" fill="#FF5F00"/>
</g>
<defs>
<clipPath id="clip0_2059_1238">
<rect width="25.5247" height="16.1209" fill="white" transform="translate(0.881836)"/>
</clipPath>
</defs>
</svg>
