<svg width="27" height="17" viewBox="0 0 27 17" fill="none" xmlns="http://www.w3.org/2000/svg">
<g clip-path="url(#clip0_2059_1233)">
<path d="M24.896 16.1209H2.59549C1.72227 16.1209 0.983398 15.382 0.983398 14.5088V1.61209C0.983398 0.738873 1.72227 0 2.59549 0H24.896C25.7692 0 26.5081 0.738873 26.5081 1.61209V14.5088C26.5081 15.382 25.7692 16.1209 24.896 16.1209Z" fill="white"/>
<path opacity="0.25" d="M24.896 16.1209H2.59549C1.72227 16.1209 0.983398 15.382 0.983398 14.5088V1.61209C0.983398 0.738873 1.72227 0 2.59549 0H24.8289C25.7692 0 26.5081 0.738873 26.5081 1.61209V14.5088C26.5081 15.382 25.7692 16.1209 24.896 16.1209ZM2.59549 0.671703C2.05812 0.671703 1.6551 1.07473 1.6551 1.61209V14.5088C1.6551 15.0462 2.05812 15.4492 2.59549 15.4492H24.8289C25.3662 15.4492 25.8364 15.0462 25.8364 14.5088V1.61209C25.8364 1.07473 25.4334 0.671703 24.896 0.671703H2.59549Z" fill="#A8AAAD"/>
<path d="M13.7453 13.5706C16.7872 13.5706 19.2532 11.1046 19.2532 8.06265C19.2532 5.02069 16.7872 2.55469 13.7453 2.55469C10.7033 2.55469 8.2373 5.02069 8.2373 8.06265C8.2373 11.1046 10.7033 13.5706 13.7453 13.5706Z" fill="#58595B"/>
<path d="M13.2086 5.03906L12.4025 8.06173L11.7308 8.33041L11.5293 9.06928L12.201 8.8006L11.7308 10.6142H16.3656L16.6342 9.53947H13.7459L14.1489 8.06173L14.955 7.79304L15.1565 7.05417L14.3504 7.39002L14.955 5.03906H13.2086Z" fill="white"/>
</g>
<defs>
<clipPath id="clip0_2059_1233">
<rect width="25.5247" height="16.1209" fill="white" transform="translate(0.983398)"/>
</clipPath>
</defs>
</svg>
