<svg width="26" height="17" viewBox="0 0 26 17" fill="none" xmlns="http://www.w3.org/2000/svg">
<g clip-path="url(#clip0_2059_1261)">
<path opacity="0.07" d="M23.9852 0H2.4907C1.3488 0 0.475586 0.873214 0.475586 2.01511V14.1058C0.475586 15.2477 1.41597 16.1209 2.4907 16.1209H23.9852C25.1271 16.1209 26.0003 15.2477 26.0003 14.1058V2.01511C26.0003 0.873214 25.0599 0 23.9852 0Z" fill="black"/>
<path d="M23.9854 0.671875C24.7242 0.671875 25.3288 1.27641 25.3288 2.01528V14.1059C25.3288 14.8448 24.7242 15.4493 23.9854 15.4493H2.49087C1.75199 15.4493 1.14746 14.8448 1.14746 14.1059V2.01528C1.14746 1.27641 1.75199 0.671875 2.49087 0.671875H23.9854Z" fill="white"/>
<path d="M19.4847 6.78558H19.2832C19.0145 7.45728 18.813 7.79313 18.6115 8.80069H19.8877C19.6862 7.79313 19.6862 7.32294 19.4847 6.78558ZM21.4326 10.7486H20.2907C20.2235 10.7486 20.2235 10.7486 20.1564 10.6815L20.022 10.0769L19.9549 9.94258H18.3428C18.2756 9.94258 18.2084 9.94258 18.2084 10.0769L18.0069 10.6815C18.0069 10.7486 17.9398 10.7486 17.9398 10.7486H16.5292L16.6635 10.4128L18.6115 5.84519C18.6115 5.50934 18.813 5.375 19.1488 5.375H20.1564C20.2235 5.375 20.2907 5.375 20.2907 5.50934L21.2311 9.87541C21.2983 10.1441 21.3654 10.3456 21.3654 10.6143C21.4326 10.6815 21.4326 10.6815 21.4326 10.7486ZM12.4318 10.5471L12.7005 9.33805C12.7676 9.33805 12.8348 9.40522 12.8348 9.40522C13.305 9.60673 13.7752 9.74107 14.2454 9.6739C14.3797 9.6739 14.5812 9.60673 14.7156 9.53956C15.0514 9.40522 15.0514 9.06937 14.7827 8.80069C14.6484 8.66635 14.4469 8.59918 14.2454 8.46484C13.9767 8.33049 13.708 8.19615 13.5065 7.99464C12.7005 7.32294 12.9691 6.38256 13.4393 5.91236C13.8424 5.64368 14.0439 5.375 14.5812 5.375C15.3873 5.375 16.2605 5.375 16.6635 5.50934H16.7307C16.6635 5.91236 16.5963 6.24821 16.462 6.65124C16.1262 6.5169 15.7903 6.38255 15.4545 6.38255C15.2529 6.38255 15.0514 6.38256 14.8499 6.44973C14.7156 6.44973 14.6484 6.5169 14.5812 6.58407C14.4469 6.71841 14.4469 6.91992 14.5812 7.05426L14.9171 7.32294C15.1858 7.45728 15.4545 7.59162 15.656 7.72596C15.9918 7.92747 16.3277 8.26332 16.3948 8.66635C16.5292 9.27088 16.3277 9.80824 15.7903 10.2113C15.4545 10.4799 15.3201 10.6143 14.8499 10.6143C13.9095 10.6143 13.1707 10.6815 12.5661 10.4799C12.499 10.6143 12.499 10.6143 12.4318 10.5471ZM10.0808 10.7486C10.148 10.2784 10.148 10.2784 10.2152 10.0769C10.551 8.59918 10.8869 7.05426 11.1556 5.57651C11.2227 5.44217 11.2227 5.375 11.3571 5.375H12.5661C12.4318 6.18104 12.2974 6.78558 12.0959 7.52445C11.8944 8.53201 11.6929 9.53956 11.4242 10.5471C11.4242 10.6815 11.3571 10.6815 11.2227 10.6815L10.0808 10.7486ZM3.83398 5.50934C3.83398 5.44217 3.96833 5.375 4.0355 5.375H6.31929C6.65514 5.375 6.92382 5.57651 6.99099 5.91236L7.59552 8.86786C7.59552 8.93503 7.59552 8.93503 7.66269 9.0022C7.66269 8.93503 7.72986 8.93503 7.72986 8.93503L9.14044 5.50934C9.07327 5.44217 9.14044 5.375 9.20761 5.375H10.6182C10.6182 5.44217 10.6182 5.44217 10.551 5.50934L8.46874 10.4128C8.40157 10.5471 8.40157 10.6143 8.3344 10.6815C8.26723 10.7486 8.13289 10.6815 7.99854 10.6815H6.99099C6.92382 10.6815 6.85665 10.6815 6.85665 10.5471L5.78192 6.38255C5.64758 6.24821 5.44607 6.0467 5.17739 5.97953C4.77437 5.77802 4.0355 5.64368 3.90115 5.64368L3.83398 5.50934Z" fill="#142688"/>
</g>
<defs>
<clipPath id="clip0_2059_1261">
<rect width="25.5247" height="16.1209" fill="white" transform="translate(0.475586)"/>
</clipPath>
</defs>
</svg>
