<svg width="26" height="17" viewBox="0 0 26 17" fill="none" xmlns="http://www.w3.org/2000/svg">
<g clip-path="url(#clip0_2059_1199)">
<path opacity="0.07" d="M23.8993 0H2.40476C1.26286 0 0.389648 0.873214 0.389648 2.01511V14.1058C0.389648 15.2477 1.33003 16.1209 2.40476 16.1209H23.8993C25.0412 16.1209 25.9144 15.2477 25.9144 14.1058V2.01511C25.9144 0.873214 24.974 0 23.8993 0Z" fill="black"/>
<path d="M23.8994 0.671875C24.6383 0.671875 25.2428 1.27641 25.2428 2.01528V14.1059C25.2428 14.8448 24.6383 15.4493 23.8994 15.4493H2.40493C1.66606 15.4493 1.06152 14.8448 1.06152 14.1059V2.01528C1.06152 1.27641 1.66606 0.671875 2.40493 0.671875H23.8994Z" fill="white"/>
<path d="M2.78797 4.80717H1.7334V8.50153H2.78797C3.34549 8.50153 3.74851 8.36719 4.10451 8.07836C4.52768 7.72908 4.77621 7.20515 4.77621 6.66107C4.7695 5.56619 3.95674 4.80717 2.78797 4.80717ZM3.63432 7.58802C3.40594 7.78953 3.11711 7.88357 2.64691 7.88357H2.45212V5.43857H2.64691C3.11039 5.43857 3.39251 5.51917 3.63432 5.73412C3.88285 5.95578 4.03062 6.29835 4.03062 6.65435C4.03062 7.01035 3.88285 7.36636 3.63432 7.58802ZM5.10535 4.80717H5.82407V8.50153H5.10535V4.80717ZM7.58393 6.22446C7.15404 6.06325 7.02642 5.95578 7.02642 5.76099C7.02642 5.52589 7.2548 5.35125 7.56378 5.35125C7.77873 5.35125 7.96009 5.43857 8.14145 5.65351L8.5176 5.16317C8.20862 4.89449 7.83918 4.75343 7.42944 4.75343C6.77789 4.75343 6.27411 5.21019 6.27411 5.81472C6.27411 6.32522 6.50921 6.58718 7.18091 6.82899C7.46303 6.92975 7.60409 6.99692 7.67797 7.03722C7.81903 7.13126 7.89292 7.2656 7.89292 7.42009C7.89292 7.72236 7.65782 7.94402 7.3354 7.94402C6.99284 7.94402 6.71744 7.76938 6.54951 7.45368L6.08604 7.90372C6.41517 8.39406 6.81819 8.60901 7.36227 8.60901C8.10786 8.60901 8.63851 8.11195 8.63851 7.39322C8.65194 6.79541 8.40341 6.52673 7.58393 6.22446ZM8.8736 6.66107C8.8736 7.74923 9.72667 8.58886 10.8215 8.58886C11.1305 8.58886 11.3992 8.5284 11.7216 8.37391V7.52757C11.4328 7.8164 11.1775 7.93059 10.8551 7.93059C10.1297 7.93059 9.61248 7.40666 9.61248 6.65435C9.61248 5.94235 10.1431 5.38483 10.8215 5.38483C11.1641 5.38483 11.4261 5.50574 11.7216 5.80129V4.95494C11.4059 4.79373 11.144 4.72656 10.835 4.72656C9.75354 4.72656 8.8736 5.58634 8.8736 6.66107ZM17.4445 7.29247L16.4571 4.80717H15.6712L17.2363 8.59557H17.6259L19.2178 4.80717H18.4387L17.4445 7.29247ZM19.547 8.50153H21.5889V7.87685H20.2657V6.88273H21.5419V6.25805H20.2657V5.43857H21.5889V4.80717H19.547V8.50153ZM24.4437 5.90204C24.4437 5.21019 23.9668 4.81388 23.1339 4.81388H22.0659V8.50825H22.7846V7.02379H22.8786L23.8727 8.50825H24.7594L23.5973 6.9499C24.1414 6.83571 24.4437 6.46627 24.4437 5.90204ZM22.9928 6.51329H22.7846V5.39155H23.0062C23.4563 5.39155 23.6981 5.57963 23.6981 5.94235C23.6981 6.31178 23.4563 6.51329 22.9928 6.51329Z" fill="#231F20"/>
<path d="M13.9317 8.64065C14.4538 8.64065 14.9546 8.43323 15.3238 8.06401C15.693 7.6948 15.9004 7.19404 15.9004 6.67189C15.9004 6.14974 15.693 5.64898 15.3238 5.27976C14.9546 4.91055 14.4538 4.70313 13.9317 4.70312C13.4095 4.70313 12.9087 4.91055 12.5395 5.27976C12.1703 5.64898 11.9629 6.14974 11.9629 6.67189C11.9629 7.19404 12.1703 7.6948 12.5395 8.06401C12.9087 8.43323 13.4095 8.64065 13.9317 8.64065Z" fill="url(#paint0_linear_2059_1199)"/>
<path opacity="0.65" d="M13.9317 8.64065C14.4538 8.64065 14.9546 8.43323 15.3238 8.06401C15.693 7.6948 15.9004 7.19404 15.9004 6.67189C15.9004 6.14974 15.693 5.64898 15.3238 5.27976C14.9546 4.91055 14.4538 4.70313 13.9317 4.70312C13.4095 4.70313 12.9087 4.91055 12.5395 5.27976C12.1703 5.64898 11.9629 6.14974 11.9629 6.67189C11.9629 7.19404 12.1703 7.6948 12.5395 8.06401C12.9087 8.43323 13.4095 8.64065 13.9317 8.64065Z" fill="url(#paint1_linear_2059_1199)"/>
<path d="M24.9535 5.03805C24.9535 4.97102 24.9066 4.9375 24.8328 4.9375H24.7256V5.25926H24.806V5.1319L24.8999 5.25926H24.9937L24.8865 5.12519C24.9267 5.11849 24.9535 5.08497 24.9535 5.03805ZM24.8194 5.08497H24.806V4.99783H24.8194C24.8597 4.99783 24.8798 5.01124 24.8798 5.03805C24.8798 5.07157 24.8597 5.08497 24.8194 5.08497Z" fill="#231F20"/>
<path d="M24.8466 4.82031C24.6921 4.82031 24.5645 4.94794 24.5645 5.10243C24.5645 5.25692 24.6921 5.38454 24.8466 5.38454C25.0011 5.38454 25.1287 5.25692 25.1287 5.10243C25.1287 4.94794 25.0011 4.82031 24.8466 4.82031ZM24.8466 5.33752C24.7257 5.33752 24.6182 5.23677 24.6182 5.10243C24.6182 4.9748 24.7189 4.86733 24.8466 4.86733C24.9675 4.86733 25.0682 4.9748 25.0682 5.10243C25.0682 5.23005 24.9675 5.33752 24.8466 5.33752Z" fill="#231F20"/>
<path d="M25.2428 8.71875C25.2428 8.71875 18.5862 13.3461 6.41895 15.4465H23.8987C24.2531 15.4465 24.5932 15.3065 24.8448 15.0569C25.0965 14.8072 25.2393 14.4683 25.2421 14.1139L25.2582 12.0853L25.2428 8.71942V8.71875Z" fill="#F48120"/>
</g>
<defs>
<linearGradient id="paint0_linear_2059_1199" x1="14.9372" y1="8.2477" x2="13.577" y2="6.11773" gradientUnits="userSpaceOnUse">
<stop stop-color="#F89F20"/>
<stop offset="0.25" stop-color="#F79A20"/>
<stop offset="0.533" stop-color="#F68D20"/>
<stop offset="0.62" stop-color="#F58720"/>
<stop offset="0.723" stop-color="#F48120"/>
<stop offset="1" stop-color="#F37521"/>
</linearGradient>
<linearGradient id="paint1_linear_2059_1199" x1="14.7229" y1="8.21882" x2="12.7347" y2="4.33235" gradientUnits="userSpaceOnUse">
<stop stop-color="#F58720"/>
<stop offset="0.359" stop-color="#E16F27"/>
<stop offset="0.703" stop-color="#D4602C"/>
<stop offset="0.982" stop-color="#D05B2E"/>
</linearGradient>
<clipPath id="clip0_2059_1199">
<rect width="25.5247" height="16.1209" fill="white" transform="translate(0.389648)"/>
</clipPath>
</defs>
</svg>
