<svg width="26" height="17" viewBox="0 0 26 17" fill="none" xmlns="http://www.w3.org/2000/svg">
<g clip-path="url(#clip0_2059_1224)">
<path opacity="0.07" d="M23.5946 0H2.10007C0.958175 0 0.0849609 0.873214 0.0849609 2.01511V14.1058C0.0849609 15.2477 1.02535 16.1209 2.10007 16.1209H23.5946C24.7365 16.1209 25.6097 15.2477 25.6097 14.1058V2.01511C25.6097 0.873214 24.6693 0 23.5946 0Z" fill="black"/>
<path d="M23.5947 0.671875C24.3336 0.671875 24.9382 1.27641 24.9382 2.01528V14.1059C24.9382 14.8448 24.3336 15.4493 23.5947 15.4493H2.10024C1.36137 15.4493 0.756836 14.8448 0.756836 14.1059V2.01528C0.756836 1.27641 1.36137 0.671875 2.10024 0.671875H23.5947Z" fill="white"/>
<path fill-rule="evenodd" clip-rule="evenodd" d="M7.80914 3.35938H10.1601V11.084C10.1601 11.5293 9.98318 11.9565 9.66826 12.2714C9.35334 12.5863 8.92621 12.7632 8.48084 12.7632H6.12988V5.03863C6.12988 4.59327 6.3068 4.16614 6.62173 3.85122C6.93665 3.5363 7.36377 3.35938 7.80914 3.35938Z" fill="#006EBC"/>
<path fill-rule="evenodd" clip-rule="evenodd" d="M12.5113 3.35938H14.8623V11.084C14.8623 11.5293 14.6853 11.9565 14.3704 12.2714C14.0555 12.5863 13.6284 12.7632 13.183 12.7632H10.832V5.03863C10.832 4.59327 11.009 4.16614 11.3239 3.85122C11.6388 3.5363 12.0659 3.35938 12.5113 3.35938Z" fill="#F00036"/>
<path fill-rule="evenodd" clip-rule="evenodd" d="M17.2134 3.35938H19.5644V11.084C19.5644 11.5293 19.3875 11.9565 19.0726 12.2714C18.7576 12.5863 18.3305 12.7632 17.8851 12.7632H15.5342V5.03863C15.5342 4.59327 15.7111 4.16614 16.026 3.85122C16.3409 3.5363 16.7681 3.35938 17.2134 3.35938Z" fill="#2AB419"/>
<path d="M7.30943 9.74135C6.59743 9.74135 5.88408 9.53715 5.52539 9.07838L6.04932 8.62431C6.09499 9.38535 8.43051 9.45722 8.43051 8.49668V6.38283H9.64092V8.49668C9.64092 8.98568 9.25536 9.38467 8.58433 9.5929C8.27131 9.68963 7.66745 9.74135 7.30943 9.74135ZM12.761 9.74135C12.3083 9.74135 11.8287 9.66948 11.4411 9.49551C10.8043 9.21003 10.5598 8.68543 10.5679 8.01843C10.5759 7.33732 10.8607 6.82145 11.5539 6.56419C12.4399 6.23506 13.7994 6.38888 14.191 6.74555V7.39845C13.8068 7.04849 12.8758 6.79526 12.2303 7.08946C11.8985 7.24127 11.7353 7.70542 11.7306 8.06209C11.7266 8.43824 11.8952 8.90306 12.2303 9.06763C12.8705 9.38132 13.8357 9.0945 14.191 8.77141V9.44983C13.9506 9.62111 13.3494 9.74135 12.761 9.74135ZM18.5907 8.00365C18.8392 7.8458 18.9816 7.6228 18.9816 7.32859C18.9816 7.03438 18.9037 6.86713 18.7479 6.69786C18.6095 6.55882 18.3583 6.38283 17.9163 6.38283H15.5344V9.74135H17.9163C18.3838 9.74135 18.6532 9.58686 18.7996 9.46259C18.9897 9.29467 19.0857 9.10659 19.0857 8.81776C19.0857 8.52825 18.9816 8.20785 18.5907 8.00365ZM17.3104 7.8149H16.3512V6.84496H17.3554C17.9976 6.84496 17.9895 7.8149 17.3104 7.8149ZM17.5039 9.26377H16.3512V8.24748H17.5039C18.1662 8.24748 18.2313 9.26377 17.5039 9.26377Z" fill="white"/>
</g>
<defs>
<clipPath id="clip0_2059_1224">
<rect width="25.5247" height="16.1209" fill="white" transform="translate(0.0849609)"/>
</clipPath>
</defs>
</svg>
