<svg width="27" height="17" viewBox="0 0 27 17" fill="none" xmlns="http://www.w3.org/2000/svg">
<g clip-path="url(#clip0_2059_1190)">
<path opacity="0.07" d="M24.1034 0H2.60886C1.46696 0 0.59375 0.873214 0.59375 2.01511V14.1058C0.59375 15.2477 1.53413 16.1209 2.60886 16.1209H24.1034C25.2453 16.1209 26.1185 15.2477 26.1185 14.1058V2.01511C26.1185 0.873214 25.1781 0 24.1034 0Z" fill="black"/>
<path d="M24.1035 0.671875C24.8424 0.671875 25.4469 1.27641 25.4469 2.01528V14.1059C25.4469 14.8448 24.8424 15.4493 24.1035 15.4493H2.60903C1.87016 15.4493 1.26562 14.8448 1.26562 14.1059V2.01528C1.26562 1.27641 1.87016 0.671875 2.60903 0.671875H24.1035Z" fill="white"/>
<path d="M13.3556 13.5706C16.3976 13.5706 18.8636 11.1046 18.8636 8.06265C18.8636 5.02069 16.3976 2.55469 13.3556 2.55469C10.3137 2.55469 7.84766 5.02069 7.84766 8.06265C7.84766 11.1046 10.3137 13.5706 13.3556 13.5706Z" fill="#F5AC37"/>
<path d="M10.6708 11.0608V11.0407V10.2548V9.19549C10.6708 9.15116 10.6708 9.14444 10.6171 9.14444H9.88491C9.84461 9.14444 9.82715 9.14444 9.82715 9.0907V8.4499H10.6097C10.654 8.4499 10.6701 8.4499 10.6701 8.39213V7.75804C10.6701 7.71774 10.6701 7.70767 10.6164 7.70767H9.88424C9.84394 7.70767 9.82715 7.70767 9.82715 7.65393V7.05947C9.82715 7.02253 9.82715 7.01245 9.88088 7.01245H10.6063C10.6574 7.01245 10.6708 7.01245 10.6708 6.94864V5.12967C10.6708 5.07593 10.6708 5.0625 10.738 5.0625H13.2683C13.4518 5.06928 13.6345 5.08948 13.8151 5.12295C14.1869 5.19201 14.544 5.32447 14.871 5.51456C15.0873 5.64205 15.2868 5.79618 15.4648 5.97333C15.5979 6.11205 15.7186 6.2622 15.8255 6.42203C15.9318 6.58408 16.0201 6.75729 16.0888 6.93857C16.0929 6.96124 16.1057 6.98137 16.1246 6.99458C16.1435 7.00779 16.1668 7.01301 16.1895 7.0091H16.7941C16.8713 7.0091 16.8713 7.0091 16.8747 7.08298V7.63647C16.8747 7.6902 16.8545 7.70364 16.8008 7.70364H16.3353C16.2883 7.70364 16.2748 7.70364 16.2775 7.76476C16.2961 7.97033 16.2961 8.17716 16.2775 8.38273C16.2775 8.43982 16.2775 8.44654 16.342 8.44654H16.8747C16.8982 8.47677 16.8747 8.50699 16.8747 8.53722C16.8781 8.57655 16.8781 8.61611 16.8747 8.65544V9.06384C16.8747 9.12093 16.8579 9.13772 16.8075 9.13772H16.1694C16.148 9.1339 16.1259 9.13846 16.1078 9.15047C16.0896 9.16247 16.0768 9.181 16.072 9.20221C15.92 9.59714 15.6772 9.95079 15.3633 10.2346C15.2486 10.338 15.1282 10.4349 15.0026 10.5248C14.8676 10.602 14.736 10.6833 14.5976 10.7471C14.3428 10.8617 14.0758 10.9467 13.8016 11.0004C13.541 11.0469 13.2764 11.0682 13.0117 11.0642H10.6708V11.0608ZM15.3297 9.15116C15.2726 9.14443 15.2149 9.14443 15.1578 9.15116H11.4164C11.3653 9.15116 11.3492 9.15116 11.3492 9.21833V10.3898C11.3492 10.4435 11.3492 10.4569 11.4164 10.4569H13.1433C13.2259 10.4632 13.3089 10.4575 13.3899 10.4402C13.6405 10.422 13.8871 10.3675 14.122 10.2783C14.2078 10.2486 14.2904 10.2103 14.3685 10.1641H14.392C14.7967 9.95351 15.1257 9.62197 15.3331 9.21564C15.3331 9.21564 15.3566 9.1619 15.3297 9.14847V9.15116ZM15.3297 7.00574C15.3357 6.99064 15.3357 6.97382 15.3297 6.95872C15.2961 6.88417 15.2556 6.81289 15.2088 6.74579C15.1378 6.63186 15.0537 6.52659 14.9583 6.4321C14.9137 6.37494 14.8617 6.3239 14.8038 6.2803C14.5117 6.03173 14.1648 5.85607 13.7915 5.76779C13.6034 5.72434 13.411 5.7027 13.2179 5.7033H11.4063C11.3553 5.7033 11.3486 5.72346 11.3486 5.76779V6.96543C11.3486 7.01581 11.3486 7.02925 11.413 7.02925H15.3062C15.3062 7.02925 15.3398 7.02253 15.3465 7.00238L15.3297 7.00574ZM13.4402 8.4499H15.4916C15.5353 8.4499 15.5554 8.4499 15.5588 8.39213C15.5757 8.18335 15.5757 7.97355 15.5588 7.76476C15.5588 7.72446 15.5386 7.70767 15.495 7.70767H11.413C11.362 7.70767 11.3486 7.72446 11.3486 7.77148V8.36929C11.3486 8.44654 11.3486 8.44654 11.4292 8.44654L13.4402 8.4499Z" fill="white"/>
</g>
<defs>
<clipPath id="clip0_2059_1190">
<rect width="25.5247" height="16.1209" fill="white" transform="translate(0.59375)"/>
</clipPath>
</defs>
</svg>
