<svg width="27" height="17" viewBox="0 0 27 17" fill="none" xmlns="http://www.w3.org/2000/svg">
<g clip-path="url(#clip0_2059_1244)">
<path opacity="0.07" d="M24.2899 0H2.79538C1.65349 0 0.780273 0.873214 0.780273 2.01511V14.1058C0.780273 15.2477 1.72066 16.1209 2.79538 16.1209H24.2899C25.4318 16.1209 26.305 15.2477 26.305 14.1058V2.01511C26.305 0.873214 25.3646 0 24.2899 0Z" fill="black"/>
<path d="M24.2901 0.671875C25.0289 0.671875 25.6335 1.27641 25.6335 2.01528V14.1059C25.6335 14.8448 25.0289 15.4493 24.2901 15.4493H2.79555C2.05668 15.4493 1.45215 14.8448 1.45215 14.1059V2.01528C1.45215 1.27641 2.05668 0.671875 2.79555 0.671875H24.2901Z" fill="white"/>
<path d="M16.8344 5.576C16.9688 4.90429 16.8344 4.4341 16.4314 4.03108C16.0284 3.56089 15.2895 3.35938 14.3491 3.35938H11.5951C11.3936 3.35938 11.2593 3.49372 11.1921 3.69523L10.1846 10.4794C10.1846 10.6138 10.2517 10.7481 10.3861 10.7481H12.1997L12.4684 8.46432L13.6774 6.98657L16.8344 5.576Z" fill="#003087"/>
<path d="M16.8341 5.57812L16.6998 5.71247C16.3639 7.59323 15.222 8.26494 13.6099 8.26494H12.871C12.6695 8.26494 12.5352 8.39928 12.468 8.60079L12.065 11.2204L11.9307 11.8921C11.9307 12.0265 11.9978 12.1608 12.1322 12.1608H13.5428C13.7443 12.1608 13.8786 12.0265 13.8786 11.8921V11.825L14.1473 10.2129V10.1457C14.1473 10.0114 14.3488 9.87703 14.4831 9.87703H14.6846C16.0952 9.87703 17.1699 9.33966 17.4386 7.72758C17.573 7.05587 17.5058 6.51851 17.1699 6.11549C17.1028 5.77964 16.9684 5.6453 16.8341 5.57812Z" fill="#3086C8"/>
<path d="M16.4308 5.4437C16.3637 5.37653 16.2965 5.37653 16.2293 5.37653C16.1621 5.37653 16.095 5.37653 16.0278 5.30936C15.8263 5.24219 15.5576 5.24219 15.2889 5.24219H13.2738C13.2066 5.24219 13.1395 5.24219 13.1395 5.30936C13.0051 5.37653 12.938 5.4437 12.938 5.57804L12.4678 8.53353V8.6007C12.4678 8.39919 12.6693 8.26485 12.8708 8.26485H13.744C15.4233 8.26485 16.498 7.59315 16.8338 5.71238V5.57804C16.7667 5.51087 16.6323 5.4437 16.498 5.4437H16.4308Z" fill="#012169"/>
</g>
<defs>
<clipPath id="clip0_2059_1244">
<rect width="25.5247" height="16.1209" fill="white" transform="translate(0.780273)"/>
</clipPath>
</defs>
</svg>
