<svg width="27" height="17" viewBox="0 0 27 17" fill="none" xmlns="http://www.w3.org/2000/svg">
<g clip-path="url(#clip0_2059_1195)">
<path opacity="0.07" d="M24.0018 0H2.5073C1.3654 0 0.492188 0.873214 0.492188 2.01511V14.1058C0.492188 15.2477 1.43257 16.1209 2.5073 16.1209H24.0018C25.1437 16.1209 26.0169 15.2477 26.0169 14.1058V2.01511C26.0169 0.873214 25.0765 0 24.0018 0Z" fill="black"/>
<path d="M24.002 0.671875C24.7408 0.671875 25.3454 1.27641 25.3454 2.01528V14.1059C25.3454 14.8448 24.7408 15.4493 24.002 15.4493H2.50747C1.7686 15.4493 1.16406 14.8448 1.16406 14.1059V2.01528C1.16406 1.27641 1.7686 0.671875 2.50747 0.671875H24.002Z" fill="white"/>
<path d="M8.55259 8.0613V10.5466C8.55259 10.7481 8.41825 10.7481 8.21674 10.6809C6.94051 10.1436 6.20163 8.46432 6.67182 7.05374C6.94051 6.31487 7.47787 5.71034 8.21674 5.44166C8.48542 5.30731 8.55259 5.37449 8.55259 5.576V8.0613ZM9.896 8.0613V5.576C9.896 5.37449 9.896 5.37449 10.0975 5.44166C11.5081 5.97902 12.247 7.65828 11.7096 9.06885C11.4409 9.80773 10.9036 10.4123 10.1647 10.6809C9.896 10.8153 9.896 10.7481 9.896 10.5466V8.0613ZM14.7323 3.35938H9.2243C11.7768 3.35938 13.7919 5.44166 13.7919 8.0613C13.7919 10.6809 11.7768 12.7632 9.2243 12.7632H14.7323C17.2847 12.7632 19.2998 10.6809 19.2998 8.0613C19.2998 5.44166 17.2847 3.35938 14.7323 3.35938Z" fill="#3086C8"/>
</g>
<defs>
<clipPath id="clip0_2059_1195">
<rect width="25.5247" height="16.1209" fill="white" transform="translate(0.492188)"/>
</clipPath>
</defs>
</svg>
