<svg width="27" height="17" viewBox="0 0 27 17" fill="none" xmlns="http://www.w3.org/2000/svg">
<g clip-path="url(#clip0_2059_1180)">
<path opacity="0.07" d="M24.3065 0H2.81198C1.67009 0 0.796875 0.873214 0.796875 2.01511V14.1058C0.796875 15.2477 1.73726 16.1209 2.81198 16.1209H24.3065C25.4484 16.1209 26.3216 15.2477 26.3216 14.1058V2.01511C26.3216 0.873214 25.3812 0 24.3065 0Z" fill="black"/>
<path d="M24.3067 0.671875C25.0455 0.671875 25.6501 1.27641 25.6501 2.01528V14.1059C25.6501 14.8448 25.0455 15.4493 24.3067 15.4493H2.81216C2.07328 15.4493 1.46875 14.8448 1.46875 14.1059V2.01528C1.46875 1.27641 2.07328 0.671875 2.81216 0.671875H24.3067Z" fill="white"/>
<path d="M15.3058 2.95462C12.4846 2.01423 9.46197 3.49198 8.45442 6.31313C7.44686 9.13429 8.99178 12.1569 11.8129 13.1645C14.6341 14.1721 17.6568 12.6271 18.6643 9.80599C19.6047 6.98484 18.1269 3.96217 15.3058 2.95462Z" fill="#EDA024"/>
<path d="M11.6113 5.57311L11.8128 4.90141C12.2159 5.03575 12.686 5.17009 13.0891 5.3716C13.2234 5.03575 13.3578 4.6999 13.4249 4.29688L14.0295 4.49839L13.6936 5.50594L14.231 5.70745L14.5668 4.6999L15.1714 4.90141C15.037 5.23726 14.9027 5.57311 14.8355 5.97613L15.1042 6.11047C15.3057 6.24481 15.5072 6.37916 15.7087 6.58067C15.9102 6.78218 15.9774 6.98369 16.0446 7.25237C16.0446 7.45388 16.0446 7.65539 15.9102 7.8569C15.7759 8.19275 15.5744 8.39427 15.1714 8.46144H15.037C15.1714 8.52861 15.2385 8.59578 15.3057 8.73012C15.5744 8.9988 15.6415 9.26748 15.5744 9.6705C15.5744 9.73767 15.5744 9.80484 15.5072 9.87201C15.5072 9.93918 15.5072 9.93918 15.44 10.0064C15.3729 10.1407 15.3057 10.2079 15.3057 10.3422C15.1042 10.6781 14.7683 10.9467 14.2981 10.9467C13.9623 10.9467 13.6264 10.9467 13.3578 10.8796L13.0891 10.8124C12.9547 11.1482 12.8204 11.4841 12.7532 11.8871L12.1487 11.6856C12.283 11.3498 12.4174 11.0139 12.4845 10.6781L11.9472 10.4765C11.8128 10.8124 11.6785 11.1482 11.6113 11.4841L11.0068 11.2826C11.1411 10.9467 11.2755 10.6109 11.3426 10.2079L10.0664 9.80484L10.4694 9.06597C10.6038 9.13314 10.8053 9.20031 10.9396 9.20031C11.074 9.26748 11.2083 9.20031 11.2755 9.06597L12.2159 6.24481V6.17764C12.2159 5.97613 12.1487 5.84179 11.9472 5.84179C11.9472 5.70745 11.8128 5.64028 11.6113 5.57311ZM12.4174 9.60333C12.7532 9.73767 13.0219 9.80484 13.2906 9.87201C13.4921 9.93918 13.6264 9.93918 13.8279 9.93918C13.9623 9.93918 14.0295 9.93918 14.1638 9.87201C14.4996 9.6705 14.5668 9.20031 14.2981 8.93163L13.8951 8.59578C13.6936 8.46144 13.4249 8.39426 13.1562 8.32709C13.0891 8.32709 12.9547 8.25992 12.8876 8.19275L12.4174 9.60333ZM13.0891 7.52105C13.2906 7.58822 13.4249 7.65539 13.5593 7.65539C13.7608 7.72256 13.9623 7.78973 14.1638 7.72256C14.4325 7.72256 14.634 7.65539 14.7012 7.38671C14.7683 7.1852 14.7683 6.98369 14.7012 6.84935C14.634 6.71501 14.4996 6.64784 14.3653 6.58067C14.1638 6.44633 13.9623 6.37915 13.6936 6.31198L13.4921 6.24481C13.4249 6.71501 13.2234 7.11803 13.0891 7.52105Z" fill="white"/>
</g>
<defs>
<clipPath id="clip0_2059_1180">
<rect width="25.5247" height="16.1209" fill="white" transform="translate(0.796875)"/>
</clipPath>
</defs>
</svg>
