<svg width="26" height="17" viewBox="0 0 26 17" fill="none" xmlns="http://www.w3.org/2000/svg">
<g clip-path="url(#clip0_2059_1208)">
<path d="M24.2797 16.0847H2.00806C1.66385 16.0837 1.33404 15.9465 1.09065 15.7031C0.847255 15.4597 0.710047 15.1299 0.708984 14.7857V1.90845C0.710047 1.56424 0.847255 1.23443 1.09065 0.991039C1.33404 0.747645 1.66385 0.610438 2.00806 0.609375H24.2797C24.6239 0.610438 24.9537 0.747645 25.1971 0.991039C25.4405 1.23443 25.5777 1.56424 25.5788 1.90845V14.7857C25.5777 15.1299 25.4405 15.4597 25.1971 15.7031C24.9537 15.9465 24.6239 16.0837 24.2797 16.0847Z" fill="white"/>
<path opacity="0.25" d="M24.2693 16.4099H2.01713C1.11436 16.4099 0.380859 15.6865 0.380859 14.7979V1.90115C0.380859 1.01249 1.11436 0.289062 2.01713 0.289062H24.2693C25.1721 0.289062 25.9056 1.01249 25.9056 1.90115V14.7979C25.9056 15.6865 25.1721 16.4099 24.2693 16.4099ZM2.01713 0.933897C1.47574 0.933897 1.0351 1.36782 1.0351 1.90115V14.7979C1.0351 15.3312 1.47574 15.7651 2.01713 15.7651H24.2693C24.8107 15.7651 25.2513 15.3312 25.2513 14.7979V1.90115C25.2513 1.36782 24.8107 0.933897 24.2693 0.933897H2.01713Z" fill="#A7A8AB"/>
<path d="M13.0507 13.2088C15.8957 13.2088 18.202 10.9025 18.202 8.05754C18.202 5.21256 15.8957 2.90625 13.0507 2.90625C10.2057 2.90625 7.89941 5.21256 7.89941 8.05754C7.89941 10.9025 10.2057 13.2088 13.0507 13.2088Z" fill="#CBA747"/>
<path d="M16.0149 7.39483C15.8168 6.21734 14.873 5.61616 14.3955 5.46167C13.9179 5.30919 10.7595 5.37233 10.7595 5.37233C10.6883 5.45965 10.732 6.64722 10.732 6.64722L11.4514 6.64319L11.4655 7.55537H10.8448C10.8355 7.55528 10.8262 7.55706 10.8175 7.56061C10.8088 7.56415 10.8009 7.56939 10.7943 7.57602C10.7877 7.58265 10.7824 7.59054 10.7789 7.59922C10.7753 7.60789 10.7736 7.61719 10.7736 7.62657V8.52665C10.7736 8.56628 10.8052 8.59785 10.8448 8.59785H11.4756C11.4776 9.08349 11.4715 9.47241 11.4521 9.4798C11.3983 9.50129 10.8139 9.45024 10.7562 9.48987C10.7004 9.52749 10.7307 10.2314 10.7307 10.5008C10.7286 10.7701 10.8019 10.7587 10.8019 10.7587C14.1503 10.6734 14.069 10.9811 15.0128 10.4155C15.9565 9.85058 16.2165 8.57367 16.0156 7.39416L16.0149 7.39483ZM12.4495 9.47644V8.58643L13.5249 8.59785C13.5441 8.59803 13.5625 8.59065 13.5762 8.57732C13.5899 8.56398 13.5978 8.54577 13.5982 8.52665V7.62657C13.5978 7.60745 13.5899 7.58924 13.5762 7.5759C13.5625 7.56257 13.5441 7.55519 13.5249 7.55537L12.4495 7.55738V6.56393C12.4495 6.56393 14.912 6.29122 14.912 8.13774C14.912 9.91237 12.4495 9.47644 12.4495 9.47644Z" fill="white"/>
</g>
<defs>
<clipPath id="clip0_2059_1208">
<rect width="25.5247" height="16.1209" fill="white" transform="translate(0.288086)"/>
</clipPath>
</defs>
</svg>
