<svg width="26" height="17" viewBox="0 0 26 17" fill="none" xmlns="http://www.w3.org/2000/svg">
<g clip-path="url(#clip0_2059_1213)">
<path d="M23.6961 0H2.20163C1.08872 0 0.186523 0.902195 0.186523 2.01511V14.1058C0.186523 15.2187 1.08872 16.1209 2.20163 16.1209H23.6961C24.8091 16.1209 25.7112 15.2187 25.7112 14.1058V2.01511C25.7112 0.902195 24.8091 0 23.6961 0Z" fill="black" fill-opacity="0.07"/>
<path d="M23.6963 0.671875H2.2018C1.45986 0.671875 0.858398 1.27334 0.858398 2.01528V14.1059C0.858398 14.8479 1.45986 15.4493 2.2018 15.4493H23.6963C24.4383 15.4493 25.0397 14.8479 25.0397 14.1059V2.01528C25.0397 1.27334 24.4383 0.671875 23.6963 0.671875Z" fill="white"/>
<path d="M12.7199 2.85156L12.6514 3.08397V9.82384L12.7199 9.89169L15.848 8.04249L12.7199 2.85156Z" fill="#343434"/>
<path d="M12.7196 2.85156L9.59082 8.04249L12.7196 9.89236V6.62116V2.85156Z" fill="#8C8C8C"/>
<path d="M12.7196 10.4807L12.6807 10.5277V12.929L12.7196 13.0412L15.8498 8.63281L12.7196 10.4807Z" fill="#3C3C3B"/>
<path d="M12.7196 13.0412V10.4807L9.59082 8.63281L12.7196 13.0412Z" fill="#8C8C8C"/>
<path d="M12.7197 9.88838L15.8478 8.03918L12.7197 6.61719V9.88838Z" fill="#141414"/>
<path d="M9.59082 8.03918L12.7196 9.88838V6.61719L9.59082 8.03918Z" fill="#393939"/>
</g>
<defs>
<clipPath id="clip0_2059_1213">
<rect width="25.5247" height="16.1209" fill="white" transform="translate(0.186523)"/>
</clipPath>
</defs>
</svg>
