<svg width="22" height="22" viewBox="0 0 22 22" fill="none" xmlns="http://www.w3.org/2000/svg">
<g clip-path="url(#clip0_2059_1362)">
<path d="M11.2165 21.9999C11.1437 21.9999 11.0708 21.9999 10.9975 21.9996C9.27303 22.0038 7.67966 21.96 6.1301 21.8657C4.70944 21.7792 3.41266 21.2883 2.37973 20.446C1.38306 19.6333 0.702438 18.5344 0.356842 17.1802C0.0560608 16.0013 0.0401154 14.844 0.0248413 13.7246C0.0137634 12.9215 0.00234985 11.9698 0 11.002C0.00234985 10.0301 0.0137634 9.07843 0.0248413 8.27529C0.0401154 7.15608 0.0560608 5.99878 0.356842 4.81966C0.702438 3.46547 1.38306 2.36658 2.37973 1.55386C3.41266 0.711608 4.70944 0.220657 6.13026 0.134216C7.67982 0.0400537 9.27353 -0.0039222 11.0017 0.000273974C12.7266 -0.00341865 14.3195 0.0400537 15.8691 0.134216C17.2897 0.220657 18.5865 0.711608 19.6194 1.55386C20.6163 2.36658 21.2967 3.46547 21.6423 4.81966C21.9431 5.99861 21.959 7.15608 21.9743 8.27529C21.9854 9.07843 21.997 10.0301 21.9992 10.9979V11.002C21.997 11.9698 21.9854 12.9215 21.9743 13.7246C21.959 14.8438 21.9433 16.0011 21.6423 17.1802C21.2967 18.5344 20.6163 19.6333 19.6194 20.446C18.5865 21.2883 17.2897 21.7792 15.8691 21.8657C14.3851 21.956 12.8607 21.9999 11.2165 21.9999ZM10.9975 20.2809C12.6939 20.2849 14.2515 20.2421 15.7647 20.1501C16.8389 20.0848 17.7703 19.7362 18.5333 19.114C19.2386 18.5388 19.7243 17.7452 19.9769 16.7552C20.2274 15.7738 20.2418 14.7201 20.2557 13.7011C20.2666 12.9033 20.2781 11.9583 20.2804 10.9999C20.2781 10.0414 20.2666 9.09656 20.2557 8.29878C20.2418 7.27979 20.2274 6.22604 19.9769 5.24448C19.7243 4.25452 19.2386 3.46094 18.5333 2.88573C17.7703 2.26369 16.8389 1.91507 15.7647 1.84978C14.2515 1.75763 12.6939 1.71516 11.0015 1.71886C9.30542 1.71483 7.74763 1.75763 6.2345 1.84978C5.16028 1.91507 4.2289 2.26369 3.46587 2.88573C2.76057 3.46094 2.27483 4.25452 2.02222 5.24448C1.77179 6.22604 1.75735 7.27962 1.74342 8.29878C1.73251 9.09723 1.7211 10.0427 1.71875 11.002C1.7211 11.957 1.73251 12.9027 1.74342 13.7011C1.75735 14.7201 1.77179 15.7738 2.02222 16.7552C2.27483 17.7452 2.76057 18.5388 3.46587 19.114C4.2289 19.736 5.16028 20.0846 6.2345 20.1499C7.74763 20.2421 9.30576 20.2851 10.9975 20.2809ZM10.9565 16.371C7.99504 16.371 5.58543 13.9616 5.58543 10.9999C5.58543 8.03829 7.99504 5.62885 10.9565 5.62885C13.9182 5.62885 16.3276 8.03829 16.3276 10.9999C16.3276 13.9616 13.9182 16.371 10.9565 16.371ZM10.9565 7.3476C8.9427 7.3476 7.30418 8.98612 7.30418 10.9999C7.30418 13.0138 8.9427 14.6523 10.9565 14.6523C12.9705 14.6523 14.6089 13.0138 14.6089 10.9999C14.6089 8.98612 12.9705 7.3476 10.9565 7.3476ZM16.9292 3.9101C16.2173 3.9101 15.6401 4.48715 15.6401 5.19916C15.6401 5.91116 16.2173 6.48822 16.9292 6.48822C17.6412 6.48822 18.2182 5.91116 18.2182 5.19916C18.2182 4.48715 17.6412 3.9101 16.9292 3.9101Z" fill="white"/>
</g>
<defs>
<clipPath id="clip0_2059_1362">
<rect width="22" height="22" fill="white"/>
</clipPath>
</defs>
</svg>
