<svg width="30" height="30" viewBox="0 0 30 30" fill="none" xmlns="http://www.w3.org/2000/svg">
<g clip-path="url(#clip0_2059_762)">
<path d="M29.0623 2.73124L27.247 0.928311C26.0635 -0.247079 24.0688 -0.315634 22.8004 0.775967L19.611 3.52226C19.5703 3.55741 19.5349 3.59901 19.5072 3.64472L16.4016 8.78222L14.4075 9.44198C14.2387 9.49765 14.1119 9.63651 14.0706 9.80761C14.0293 9.9787 14.0812 10.1598 14.2069 10.2846L19.6411 15.681C19.7384 15.7777 19.8688 15.8299 20.0033 15.8299C20.0429 15.8299 20.0818 15.8252 20.1207 15.8164C20.2936 15.776 20.4328 15.6494 20.4889 15.4818L21.1538 13.5008L26.4021 10.3531C26.4482 10.3256 26.49 10.2904 26.5249 10.25L29.2246 7.14276C30.319 5.88593 30.2458 3.90663 29.0623 2.73124ZM28.4505 6.4789L25.8039 9.5246L20.4635 12.7273C20.3591 12.79 20.2806 12.8873 20.2423 13.0021L19.7797 14.3797L18.5549 13.1633L18.5544 13.1627L16.7431 11.3639L16.7426 11.3633L15.5178 10.1469L16.9048 9.68749C17.021 9.64882 17.119 9.57089 17.1821 9.46659L20.3431 4.23769L23.4718 1.54472C24.342 0.795303 25.7107 0.841592 26.5225 1.64784L28.3378 3.45077C29.1502 4.25761 29.2004 5.61581 28.4505 6.4789Z" fill="#323941"/>
<path d="M27.6096 20.4431C26.1051 18.9496 23.8916 18.4299 21.8857 19.0762L10.9978 8.26268C11.6479 6.27049 11.1252 4.07146 9.62135 2.57791C8.03669 1.00408 5.66442 0.511306 3.5771 1.324C3.41604 1.3867 3.29804 1.52556 3.26265 1.69373C3.22725 1.86189 3.27976 2.03592 3.40188 2.15779L6.66088 5.39451L4.48743 7.5531L1.22843 4.3158C1.1063 4.19451 0.930493 4.14236 0.761171 4.17752C0.591849 4.21267 0.452026 4.32986 0.3889 4.48982C-0.4288 6.56228 0.0667756 8.91834 1.65144 10.4928C3.15586 11.9863 5.36943 12.506 7.37533 11.8603L11.4467 15.9039L6.37651 20.9394L3.15173 22.7301C3.06206 22.7799 2.98949 22.8555 2.94347 22.9469L1.4945 25.825C1.39598 26.0207 1.43433 26.2574 1.59067 26.4121L3.40188 28.2109C3.5004 28.3088 3.63138 28.3598 3.76412 28.3598C3.842 28.3598 3.92046 28.3422 3.99303 28.3058L6.89097 26.8668C6.983 26.8211 7.05911 26.749 7.10926 26.6599L8.91221 23.4572L13.9824 18.4222L18.2632 22.6738C17.6131 24.666 18.1358 26.8644 19.6402 28.3586C20.7175 29.4285 22.1594 29.9986 23.6278 29.9986C24.3193 29.9986 25.0166 29.8721 25.6845 29.6125C25.8455 29.5498 25.9635 29.4109 25.9989 29.2428C26.0343 29.0746 25.9818 28.9006 25.8597 28.7787L22.6007 25.542L24.7742 23.3834L28.0332 26.6201C28.1553 26.7414 28.3311 26.7935 28.5004 26.7584C28.6697 26.7232 28.8096 26.606 28.8727 26.4461C29.6898 24.373 29.1942 22.017 27.6096 20.4431ZM8.13757 22.7875C8.10395 22.8209 8.07563 22.8578 8.05262 22.8988L6.29215 26.0265L3.8656 27.2318L2.57651 25.9515L3.79008 23.5416L6.93934 21.7931C6.98064 21.7703 7.0184 21.7422 7.05144 21.7088L12.1718 16.6234L13.2585 17.7027L8.13757 22.7875ZM28.1482 25.2953L25.1364 22.3041C24.9364 22.1055 24.6119 22.1055 24.4119 22.3041L21.514 25.1822C21.4178 25.2777 21.3641 25.4072 21.3641 25.542C21.3641 25.6767 21.4184 25.8062 21.514 25.9017L24.5258 28.893C23.0326 29.1877 21.4662 28.7324 20.3647 27.639C19.068 26.3512 18.6627 24.4234 19.3317 22.7271C19.406 22.539 19.3612 22.3246 19.2172 22.1816L7.87091 10.9129C7.77297 10.8156 7.642 10.764 7.50867 10.764C7.44613 10.764 7.38241 10.7758 7.32164 10.7992C5.61427 11.4637 3.67268 11.0611 2.37592 9.77322C1.27445 8.67928 0.816038 7.12361 1.11338 5.6406L4.12518 8.63182C4.32518 8.83045 4.64967 8.83045 4.84967 8.63182L7.7476 5.75369C7.9476 5.55506 7.9476 5.23279 7.7476 5.03416L4.7358 2.04295C6.22902 1.74763 7.79539 2.20349 8.89687 3.29685C10.1936 4.58474 10.5989 6.51248 9.9299 8.20877C9.85557 8.39685 9.90041 8.61131 10.0444 8.75428L21.3907 20.023C21.5346 20.166 21.7506 20.2105 21.9399 20.1367C23.6479 19.4722 25.5889 19.8748 26.8857 21.1627C27.9865 22.2566 28.445 23.8123 28.1482 25.2953Z" fill="#323941"/>
</g>
<defs>
<clipPath id="clip0_2059_762">
<rect width="30" height="30" fill="white"/>
</clipPath>
</defs>
</svg>
