<svg width="25" height="25" viewBox="0 0 25 25" fill="none" xmlns="http://www.w3.org/2000/svg">
<g clip-path="url(#clip0_2059_724)">
<path d="M24.144 6.76548L17.775 0.147363C17.6843 0.0532227 17.5592 0 17.4285 0H7.93584C6.87349 0 6.00918 0.863965 6.00918 1.92588V8.65386H2.16216C1.36733 8.65386 0.720703 9.30029 0.720703 10.0949V17.309C0.720703 18.1036 1.36733 18.75 2.16216 18.75H6.00918V23.0775C6.00918 24.1376 6.87349 25 7.93584 25H22.3518C23.4141 25 24.2784 24.138 24.2784 23.0786V7.09888C24.2784 6.97456 24.2302 6.85508 24.144 6.76548ZM17.5477 1.2979L22.7761 6.73076H17.5477V1.2979ZM2.16216 17.7885C1.89751 17.7885 1.68228 17.5734 1.68228 17.309V10.0949C1.68228 9.83052 1.89756 9.61538 2.16216 9.61538H15.1447C15.4093 9.61538 15.6246 9.83052 15.6246 10.0949V17.309C15.6246 17.5734 15.4093 17.7885 15.1447 17.7885H2.16216ZM23.3168 23.0786C23.3168 23.6079 22.8839 24.0385 22.3517 24.0385H7.93584C7.40366 24.0385 6.9707 23.6074 6.9707 23.0775V18.75H15.1447C15.9395 18.75 16.5861 18.1036 16.5861 17.309V10.0949C16.5861 9.30029 15.9395 8.65386 15.1447 8.65386H6.9707V1.92588C6.9707 1.39409 7.40366 0.961523 7.93584 0.961523H16.5861V7.21152C16.5861 7.47705 16.8014 7.69229 17.0668 7.69229H23.3168V23.0786Z" fill="white"/>
<path d="M6.46899 12.2006C6.30937 11.9931 6.11123 11.8583 5.87461 11.7963C5.7206 11.755 5.39009 11.7344 4.88301 11.7344H3.54492V15.8641H4.37876V14.3063H4.92246C5.29995 14.3063 5.58823 14.2866 5.7873 14.2471C5.93379 14.2152 6.07793 14.1499 6.21972 14.0513C6.36152 13.9527 6.47842 13.817 6.57046 13.6443C6.6625 13.4715 6.70849 13.2583 6.70849 13.0048C6.70845 12.6762 6.62861 12.4081 6.46899 12.2006ZM5.75488 13.3373C5.69199 13.4293 5.60513 13.4969 5.49429 13.5401C5.38345 13.5833 5.16377 13.6049 4.83511 13.6049H4.37876V12.433H4.78159C5.08208 12.433 5.28208 12.4424 5.38159 12.4612C5.5168 12.4856 5.62856 12.5466 5.7168 12.6443C5.80508 12.7419 5.84922 12.8659 5.84922 13.0161C5.84927 13.1382 5.81777 13.2452 5.75488 13.3373Z" fill="white"/>
<path d="M10.7166 12.8626C10.6264 12.5987 10.4949 12.3757 10.3222 12.1936C10.1494 12.0114 9.94185 11.8846 9.69961 11.8132C9.51934 11.7606 9.25732 11.7344 8.91367 11.7344H7.38965V15.8641H8.95874C9.26675 15.8641 9.51274 15.835 9.69678 15.7768C9.94282 15.6979 10.1381 15.588 10.2827 15.4472C10.4743 15.2612 10.6217 15.0181 10.725 14.7176C10.8095 14.4715 10.8518 14.1786 10.8518 13.8387C10.8518 13.4518 10.8067 13.1265 10.7166 12.8626ZM9.90522 14.5584C9.84888 14.7435 9.77612 14.8763 9.68691 14.957C9.5977 15.0378 9.4855 15.0951 9.35029 15.1289C9.24702 15.1552 9.07891 15.1683 8.84605 15.1683H8.22349V12.433H8.59814C8.93804 12.433 9.16626 12.4461 9.28267 12.4725C9.43853 12.5062 9.56719 12.571 9.6686 12.6668C9.77002 12.7626 9.84888 12.8959 9.90522 13.0668C9.96157 13.2377 9.98975 13.4828 9.98975 13.8021C9.98975 14.1213 9.96157 14.3734 9.90522 14.5584Z" fill="white"/>
<path d="M14.3956 12.433V11.7344H11.5645V15.8641H12.3983V14.1091H14.1223V13.4105H12.3983V12.433H14.3956Z" fill="white"/>
</g>
<defs>
<clipPath id="clip0_2059_724">
<rect width="25" height="25" fill="white"/>
</clipPath>
</defs>
</svg>
