<svg width="30" height="30" viewBox="0 0 30 30" fill="none" xmlns="http://www.w3.org/2000/svg">
<g clip-path="url(#clip0_2059_744)">
<path d="M25.6066 4.39337C22.7734 1.56024 19.0066 0 15 0C10.9934 0 7.22656 1.56024 4.39337 4.39337C1.56024 7.22649 0 10.9933 0 15C0 19.0067 1.56024 22.7734 4.39337 25.6066C7.22649 28.4398 10.9933 30 14.9999 30C19.0066 30 22.7734 28.4398 25.6066 25.6066C28.4397 22.7735 29.9999 19.0067 29.9999 15C29.9999 10.9933 28.4397 7.22649 25.6066 4.39337ZM15 28.8126C7.3837 28.8126 1.18745 22.6162 1.18745 15C1.18745 7.38376 7.3837 1.18745 15 1.18745C22.6163 1.18745 28.8125 7.38376 28.8125 15C28.8125 22.6162 22.6162 28.8126 15 28.8126Z" fill="#323941"/>
<path d="M14.9999 3.75781C8.79995 3.75781 3.75586 8.80184 3.75586 15.0018C3.75586 21.2018 8.79988 26.2459 14.9999 26.2459C21.1999 26.2459 26.2439 21.2018 26.2439 15.0018C26.2439 8.80184 21.1998 3.75781 14.9999 3.75781ZM14.9999 25.0584C9.4547 25.0584 4.94331 20.547 4.94331 15.0018C4.94331 9.45665 9.45463 4.94526 14.9999 4.94526C20.5451 4.94526 25.0565 9.45658 25.0565 15.0018C25.0565 20.5471 20.5451 25.0584 14.9999 25.0584Z" fill="#323941"/>
<path d="M17.0873 15.0011C17.0873 13.8503 16.1511 12.9141 15.0002 12.9141C13.8493 12.9141 12.9131 13.8503 12.9131 15.0011C12.9131 16.152 13.8493 17.0882 15.0002 17.0882C16.1511 17.0882 17.0873 16.152 17.0873 15.0011ZM14.1005 15.0011C14.1005 14.505 14.5041 14.1015 15.0002 14.1015C15.4963 14.1015 15.8999 14.5051 15.8999 15.0011C15.8999 15.4972 15.4963 15.9008 15.0002 15.9008C14.5041 15.9008 14.1005 15.4972 14.1005 15.0011Z" fill="#323941"/>
<path d="M15 5.79688C9.92589 5.79688 5.79785 9.92491 5.79785 14.999C5.79785 20.0731 9.92596 24.2012 15 24.2012C20.0741 24.2012 24.2022 20.0731 24.2022 14.999C24.2022 9.92491 20.0741 5.79688 15 5.79688ZM23.0147 14.9991C23.0147 15.8639 22.8764 16.6969 22.6218 17.4779L19.3751 15.3435C19.2074 15.2333 19.1893 15.0659 19.1893 14.9991C19.1893 14.9323 19.2074 14.7648 19.3751 14.6547L22.6218 12.5203C22.8765 13.3012 23.0147 14.1342 23.0147 14.9991ZM20.9537 9.63953L17.4856 11.3817C17.3062 11.4718 17.1523 11.4037 17.0944 11.3704C17.0365 11.3369 16.9006 11.2376 16.889 11.0372L16.6639 7.15855C18.3493 7.51584 19.8405 8.40405 20.9537 9.63953ZM13.3357 7.15862L13.1106 11.0378C13.099 11.2381 12.9631 11.3375 12.9053 11.3709C12.8473 11.4043 12.6933 11.4723 12.5141 11.3822L9.04612 9.63966C10.1593 8.40418 11.6505 7.51597 13.3357 7.15862ZM6.98524 14.9991C6.98524 14.1343 7.12351 13.3013 7.37808 12.5203L10.6246 14.6546C10.7923 14.7648 10.8103 14.9322 10.8103 14.999C10.8103 15.0658 10.7923 15.2332 10.6246 15.3434L7.37808 17.4777C7.12351 16.6968 6.98524 15.8638 6.98524 14.9991ZM9.04625 20.3586L12.5141 18.6163C12.6934 18.5263 12.8473 18.5943 12.9053 18.6277C12.9631 18.6611 13.0991 18.7605 13.1107 18.9607L13.3357 22.8395C11.6506 22.4822 10.1595 21.5941 9.04625 20.3586ZM14.5344 22.9999L14.2962 18.892C14.2648 18.3527 13.9668 17.8695 13.4991 17.5993C13.0312 17.3292 12.4637 17.3128 11.981 17.5553L8.30621 19.4016C8.13555 19.143 7.9794 18.874 7.83908 18.5957L11.2769 16.3357C11.7283 16.039 11.9978 15.5392 11.9978 14.999C11.9978 14.4588 11.7283 13.9591 11.2769 13.6623L7.83908 11.4023C7.9794 11.1241 8.13548 10.8553 8.30601 10.5967L11.9808 12.4433C12.208 12.5574 12.4538 12.6142 12.6993 12.6142C12.9756 12.6142 13.2512 12.5423 13.4989 12.3993C13.9668 12.1291 14.2648 11.6459 14.296 11.1066L14.5343 6.99824C14.6884 6.9894 14.8436 6.98439 14.9999 6.98439C15.1561 6.98439 15.3112 6.9894 15.4652 6.99824L15.7035 11.1061C15.7348 11.6454 16.0327 12.1286 16.5006 12.3988C16.7483 12.5418 17.024 12.6138 17.3003 12.6138C17.5457 12.6138 17.7916 12.557 18.0186 12.4429L21.6938 10.5967C21.8644 10.8552 22.0205 11.124 22.1608 11.4022L18.7228 13.6623C18.2714 13.9591 18.0019 14.4588 18.0019 14.999C18.0019 15.5392 18.2714 16.039 18.7228 16.3357L22.1608 18.5959C22.0205 18.8741 21.8644 19.1429 21.6939 19.4014L18.0188 17.5547C17.5361 17.3121 16.9686 17.3286 16.5007 17.5987C16.0329 17.8688 15.7349 18.352 15.7036 18.8914L15.4653 22.9999C15.3112 23.0088 15.1562 23.0138 15 23.0138C14.8436 23.0138 14.6886 23.0088 14.5344 22.9999ZM16.664 22.8396L16.889 18.9602C16.9006 18.7599 17.0365 18.6605 17.0945 18.6271C17.1523 18.5937 17.3064 18.5256 17.4857 18.6157L20.9539 20.3584C19.8406 21.594 18.3493 22.4823 16.664 22.8396Z" fill="#323941"/>
</g>
<defs>
<clipPath id="clip0_2059_744">
<rect width="30" height="30" fill="white"/>
</clipPath>
</defs>
</svg>
