<svg width="17" height="13" viewBox="0 0 17 13" fill="none" xmlns="http://www.w3.org/2000/svg">
<g clip-path="url(#clip0_2059_1268)">
<path d="M2.78017 12.7649C2.10468 11.6892 1.72057 10.443 1.6685 9.15819C1.61642 7.87338 1.89832 6.59778 2.48435 5.46643C3.07039 4.33509 3.93874 3.3901 4.9975 2.73149C6.05625 2.07289 7.26601 1.72518 8.4987 1.72518C9.7314 1.72518 10.9412 2.07289 11.9999 2.73149C13.0587 3.3901 13.927 4.33509 14.5131 5.46643C15.0991 6.59778 15.381 7.87338 15.3289 9.15819C15.2768 10.443 14.8927 11.6892 14.2172 12.7649H16.1312C16.7669 11.413 17.0622 9.91452 16.9891 8.41064C16.916 6.90677 16.4771 5.44707 15.7136 4.16916C14.9501 2.89125 13.8872 1.83722 12.6251 1.10644C11.3631 0.375653 9.94343 -0.0078125 8.5 -0.0078125C7.05657 -0.0078125 5.63692 0.375653 4.37486 1.10644C3.11281 1.83722 2.04994 2.89125 1.28644 4.16916C0.52294 5.44707 0.0839668 6.90677 0.010899 8.41064C-0.0621688 9.91452 0.233076 11.413 0.868803 12.7649H2.78017Z" fill="#4A4AF4"/>
<path d="M8.61367 4.65625C7.36881 4.65625 5.93594 5.26905 5.15791 5.91567L5.86721 7.47539C6.49094 6.88018 7.49978 6.37154 8.40879 6.37154C9.2737 6.37154 9.74959 6.67186 9.74959 7.2806C9.74959 7.68642 9.4332 7.9191 8.83541 7.97592C6.59338 8.191 4.85059 8.92284 4.85059 10.718C4.85059 12.1424 5.83479 13.0028 7.4544 13.0028C7.94127 13.0034 8.41954 12.8688 8.84002 12.6128C9.2605 12.3567 9.60802 11.9884 9.84685 11.5458V12.7701H11.8671V7.63773C11.8671 5.51796 10.4537 4.66166 8.61367 4.66166V4.65625ZM8.02366 11.3565C7.3753 11.3565 7.01092 11.0643 7.01092 10.5854C7.01092 9.58435 8.17797 9.34355 9.7081 9.34355C9.7081 10.3906 9.0364 11.3565 8.02236 11.3565H8.02366Z" fill="#060809"/>
</g>
<defs>
<clipPath id="clip0_2059_1268">
<rect width="17" height="13" fill="white"/>
</clipPath>
</defs>
</svg>
