<svg width="98" height="98" viewBox="0 0 98 98" fill="none" xmlns="http://www.w3.org/2000/svg">
<path d="M72.9227 7.56475L96.8453 49L72.9226 90.4353L25.0774 90.4353L1.15471 49L25.0774 7.56475L72.9227 7.56475Z" stroke="#CCCCCC" stroke-width="2"/>
<g clip-path="url(#clip0_2153_2185)">
<path d="M56.3454 62.3781C56.0236 62.2954 55.6977 62.4948 55.6183 62.8198L55.0183 65.2483C54.9371 65.5745 55.1336 65.9037 55.4548 65.9846C55.5036 65.9971 55.5524 66.0031 55.6007 66.0031C55.8695 66.0031 56.1136 65.8192 56.1818 65.5436L56.7818 63.115C56.8624 62.7894 56.6665 62.4596 56.3454 62.3781Z" fill="#CCCCCC"/>
<path d="M49 50.2171C49.0782 50.2171 49.1559 50.2022 49.2294 50.1713L55.8294 47.4076C56.1353 47.2796 56.2806 46.9243 56.1541 46.6147C56.0276 46.3046 55.6753 46.1588 55.37 46.2856L49 48.9528L32.2 41.9183V41.7165C32.2 41.3814 31.9312 41.1094 31.6 41.1094C31.2688 41.11 31 41.382 31 41.7171V42.3243C31 42.5701 31.1465 42.7915 31.3706 42.885L48.7706 50.1707C48.8441 50.2016 48.9218 50.2171 49 50.2171Z" fill="#CCCCCC"/>
<path d="M56.1377 56.4356C55.9912 56.135 55.6324 56.0112 55.3341 56.16C54.1947 56.7303 52.2918 57.3934 49.6 57.4839V52.0374C49.6 51.7023 49.3312 51.4303 49 51.4303C48.6688 51.4303 48.4 51.7023 48.4 52.0374V57.4785C40.95 57.238 38.5459 52.6714 38.2 51.9112V47.7868C38.2 47.4517 37.9312 47.1797 37.6 47.1797C37.2688 47.1797 37 47.4517 37 47.7868V52.0368C37 52.1136 37.0147 52.1904 37.0424 52.2624C37.1471 52.5255 39.7006 58.7154 49 58.7154C52.25 58.7154 54.5277 57.9178 55.8659 57.2487C56.1635 57.0999 56.2853 56.7362 56.1377 56.4356Z" fill="#CCCCCC"/>
<path d="M58.0004 62.9609C57.6686 62.9609 57.4004 63.233 57.4004 63.5681V65.3895C57.4004 65.7246 57.6686 65.9967 58.0004 65.9967C58.3322 65.9967 58.6004 65.7246 58.6004 65.3895V63.5681C58.6004 63.233 58.3322 62.9609 58.0004 62.9609Z" fill="#CCCCCC"/>
<path d="M66.4 41.1073C66.0682 41.1073 65.8 41.3793 65.8 41.7144V41.915L58.6 44.9138V43.8168L66.6294 40.4543C66.8535 40.3609 67 40.1394 67 39.8936C67 39.6478 66.8535 39.4269 66.63 39.3329L49.2294 32.046C49.0824 31.9847 48.9182 31.9847 48.7712 32.046L31.3706 39.3317C31.1459 39.4257 31 39.6466 31 39.8924C31 40.1382 31.1465 40.3597 31.3706 40.4531L48.7706 47.7388C48.8441 47.7698 48.9218 47.7853 49 47.7853C49.0782 47.7853 49.1559 47.7704 49.2294 47.7388L55.5212 45.1043C55.8276 44.9769 55.9729 44.6216 55.8465 44.3115C55.72 44.0019 55.3688 43.8555 55.0629 43.9829L49 46.5216L33.1688 39.893L49 33.2638L64.8312 39.893L57.9424 42.7775L51.3441 40.2847C51.3788 40.1585 51.4 40.0287 51.4 39.893C51.4 38.8716 50.3459 38.0716 49 38.0716C47.6541 38.0716 46.6 38.8716 46.6 39.893C46.6 40.9144 47.6541 41.7144 49 41.7144C49.6006 41.7144 50.1365 41.549 50.5529 41.2817L57.4 43.8686V45.8138V45.8144V58.8263C56.7035 59.0781 56.2 59.7454 56.2 60.5359C56.2 61.54 57.0076 62.3573 58 62.3573C58.9924 62.3573 59.8 61.54 59.8 60.5359C59.8 59.7454 59.2965 59.0781 58.6 58.8263V55.3799C60.3224 54.0644 60.94 52.3121 60.9671 52.2341C60.9888 52.1704 61 52.1031 61 52.0359V47.7859C61 47.4507 60.7318 47.1787 60.4 47.1787C60.0682 47.1787 59.8 47.4507 59.8 47.7859V51.9234C59.6965 52.1805 59.3353 52.9746 58.6 53.7573V46.2269L66.6288 42.8835C66.8541 42.79 67 42.568 67 42.3222V41.715C67 41.3793 66.7318 41.1073 66.4 41.1073ZM49 40.5001C48.2676 40.5001 47.8 40.1406 47.8 39.893C47.8 39.6454 48.2676 39.2859 49 39.2859C49.7329 39.2859 50.2 39.6454 50.2 39.893C50.2 40.1406 49.7324 40.5001 49 40.5001ZM58 61.143C57.6688 61.143 57.4 60.8704 57.4 60.5359C57.4 60.2013 57.6688 59.9287 58 59.9287C58.3312 59.9287 58.6 60.2013 58.6 60.5359C58.6 60.8704 58.3312 61.143 58 61.143Z" fill="#CCCCCC"/>
<path d="M60.3819 62.8194C60.3013 62.4944 59.9748 62.2962 59.6548 62.3777C59.3331 62.4593 59.1378 62.789 59.2183 63.114L59.8184 65.5426C59.8866 65.8182 60.1307 66.0021 60.3995 66.0021C60.4478 66.0021 60.4966 65.9968 60.5454 65.9837C60.8672 65.9021 61.0625 65.5729 60.9825 65.2474L60.3819 62.8194Z" fill="#CCCCCC"/>
</g>
<defs>
<clipPath id="clip0_2153_2185">
<rect width="36" height="34" fill="white" transform="translate(31 32)"/>
</clipPath>
</defs>
</svg>
