<svg width="98" height="98" viewBox="0 0 98 98" fill="none" xmlns="http://www.w3.org/2000/svg">
<path d="M72.9227 7.56475L96.8453 49L72.9226 90.4353L25.0774 90.4353L1.15471 49L25.0774 7.56475L72.9227 7.56475Z" stroke="#CCCCCC" stroke-width="2"/>
<g clip-path="url(#clip0_2153_2181)">
<path d="M53.968 43.8678V41.0923C53.968 40.676 53.688 40.3984 53.268 40.3984H44.868C44.448 40.3984 44.168 40.676 44.168 41.0923V43.8678C44.168 44.2842 44.448 44.5617 44.868 44.5617H53.268C53.688 44.5617 53.968 44.2842 53.968 43.8678ZM52.568 43.174H45.568V41.7862H52.568V43.174Z" fill="#CCCCCC"/>
<path d="M41.3684 57.7422C39.8284 57.7422 38.5684 58.9912 38.5684 60.5177C38.5684 62.0442 39.8284 63.2932 41.3684 63.2932C42.9084 63.2932 44.1684 62.0442 44.1684 60.5177C44.1684 58.9912 42.9084 57.7422 41.3684 57.7422ZM41.3684 61.9055C40.5984 61.9055 39.9684 61.281 39.9684 60.5177C39.9684 59.7544 40.5984 59.1299 41.3684 59.1299C42.1384 59.1299 42.7684 59.7544 42.7684 60.5177C42.7684 61.281 42.1384 61.9055 41.3684 61.9055Z" fill="#CCCCCC"/>
<path d="M56.7688 57.7422C55.2288 57.7422 53.9688 58.9912 53.9688 60.5177C53.9688 62.0442 55.2288 63.2932 56.7688 63.2932C58.3088 63.2932 59.5688 62.0442 59.5688 60.5177C59.5688 58.9912 58.3088 57.7422 56.7688 57.7422ZM56.7688 61.9055C55.9988 61.9055 55.3688 61.281 55.3688 60.5177C55.3688 59.7544 55.9988 59.1299 56.7688 59.1299C57.5388 59.1299 58.1688 59.7544 58.1688 60.5177C58.1688 61.281 57.5388 61.9055 56.7688 61.9055Z" fill="#CCCCCC"/>
<path d="M56.6984 46.297C56.8384 46.0194 56.7684 45.7419 56.5584 45.4643C56.3484 45.1868 55.9984 45.1868 55.7184 45.3255L52.3584 47.3378C51.1684 48.0316 49.9084 48.6561 48.7184 49.2112C48.3684 49.35 47.9484 49.5582 47.5284 49.7663C46.0584 50.5296 45.2884 52.1255 45.6384 53.7214C45.9184 54.9704 46.9684 56.0112 48.2284 56.2888C48.5084 56.3582 48.7884 56.3582 49.0684 56.3582C50.3984 56.3582 51.5884 55.5949 52.2184 54.4153C52.3584 54.0684 52.5684 53.6521 52.7784 53.2357C53.4084 52.0561 53.9684 50.8072 54.6684 49.6276L56.6984 46.297ZM53.4784 48.8643C52.7084 50.1133 52.0784 51.3623 51.5184 52.6112C51.3784 53.0276 51.1684 53.3745 50.9584 53.7908C50.5384 54.6929 49.5584 55.1092 48.5784 54.901C47.8084 54.7623 47.1784 54.1378 47.0384 53.3745C46.8284 52.4031 47.2484 51.4316 48.1584 51.0153C48.5084 50.8072 48.9284 50.6684 49.3484 50.4602C50.6084 49.8357 51.9384 49.2112 53.1284 48.5174L54.0384 47.9623L53.4784 48.8643Z" fill="#CCCCCC"/>
<path d="M68.5689 45.1839C68.5599 45.137 68.5469 45.0907 68.5284 45.0458C68.5098 45.0002 68.4865 44.9587 68.4597 44.9207C67.4111 42.4309 65.8869 40.1832 64.0017 38.288C63.9749 38.2485 63.944 38.2111 63.9084 38.1758C63.8727 38.1404 63.8349 38.1098 63.7951 38.0832C59.9973 34.371 54.7912 32.0703 49.0684 32.0703C46.3267 32.0703 43.7044 32.5989 41.2977 33.5567C41.2503 33.5656 41.2037 33.5785 41.1584 33.5968C41.1131 33.6152 41.0705 33.6383 41.0321 33.6649C38.5203 34.7043 36.2529 36.2152 34.3409 38.0839C34.3011 38.1104 34.2634 38.1411 34.2277 38.1764C34.192 38.2118 34.1611 38.2492 34.1343 38.2887C30.3893 42.0533 28.0684 47.2139 28.0684 52.8866C28.0684 57.605 29.6084 62.1152 32.6184 65.7928C32.7584 66.0009 32.9684 66.0703 33.1784 66.0703H64.9584C65.1684 66.0703 65.3784 66.0009 65.5184 65.7928C68.5284 62.1152 70.0684 57.605 70.0684 52.8866C70.0684 50.1696 69.5351 47.5696 68.5689 45.1839ZM64.6784 64.6826H33.5284C32.582 63.4724 31.7955 62.1744 31.1744 60.8104L33.1084 60.0336C33.4584 59.8948 33.5984 59.4785 33.4584 59.1315C33.3184 58.7846 32.8984 58.6458 32.5484 58.7846L30.6529 59.5465C29.9494 57.6485 29.5541 55.6417 29.4814 53.5805H34.3684C34.7884 53.5805 35.0684 53.303 35.0684 52.8866C35.0684 52.4703 34.7884 52.1928 34.3684 52.1928H29.4821C29.5603 50.005 30.0085 47.9064 30.7654 45.9567L32.6877 46.7805C32.7577 46.8499 32.8977 46.8499 32.9677 46.8499C33.2477 46.8499 33.4577 46.7111 33.5977 46.4336C33.7377 46.0866 33.5977 45.6703 33.2477 45.5315L31.3062 44.6989C32.1839 42.8424 33.3492 41.1438 34.7451 39.6601L36.1884 41.0907C36.3284 41.2295 36.4684 41.2989 36.6784 41.2989C36.8884 41.2989 37.0284 41.2295 37.1684 41.0907C37.4484 40.8132 37.4484 40.3968 37.1684 40.1193L35.7251 38.6887C37.2933 37.239 39.0989 36.0397 41.0774 35.1567L41.8584 37.0662C41.9284 37.3438 42.2084 37.4826 42.4884 37.4826C42.5584 37.4826 42.6284 37.4826 42.7684 37.4132C43.1184 37.2744 43.2584 36.8581 43.1184 36.5111L42.3532 34.6397C44.2418 33.9513 46.2642 33.5458 48.3684 33.4717V38.3152C48.3684 38.7315 48.6484 39.0091 49.0684 39.0091C49.4884 39.0091 49.7684 38.7315 49.7684 38.3152V33.4717C51.9754 33.5492 54.0926 33.9934 56.0594 34.7445L55.2284 36.6499C55.0884 36.9968 55.2284 37.4132 55.5784 37.5519C55.6484 37.6213 55.7884 37.6213 55.8584 37.6213C56.1384 37.6213 56.4184 37.4132 56.4884 37.205L57.3284 35.2805C59.2012 36.1506 60.9148 37.3057 62.4116 38.6894L60.9684 40.12C60.6884 40.3975 60.6884 40.8139 60.9684 41.0914C61.1084 41.2302 61.2484 41.2996 61.4584 41.2996C61.5984 41.2996 61.8084 41.2302 61.9484 41.0914L63.3916 39.6608C64.854 41.2152 66.0646 43.005 66.9547 44.9662L65.0284 45.7404C64.6784 45.8792 64.5384 46.2955 64.6784 46.6424C64.7484 46.92 65.0284 47.0587 65.3084 47.0587C65.3784 47.0587 65.4484 46.9894 65.5884 46.9894L67.4763 46.2309C68.1708 48.103 68.5798 50.1077 68.6546 52.1934H63.7684C63.3484 52.1934 63.0684 52.471 63.0684 52.8873C63.0684 53.3036 63.3484 53.5812 63.7684 53.5812H68.6553C68.5791 55.7438 68.1488 57.8458 67.3905 59.8261L65.4484 58.9934C65.0984 58.8547 64.6784 58.9934 64.5384 59.3404C64.3984 59.6873 64.5384 60.1036 64.8884 60.2424L66.8552 61.086C66.2657 62.3485 65.5383 63.554 64.6784 64.6826Z" fill="#CCCCCC"/>
</g>
<defs>
<clipPath id="clip0_2153_2181">
<rect width="42" height="34" fill="white" transform="translate(28 32)"/>
</clipPath>
</defs>
</svg>
