<svg width="174" height="51" viewBox="0 0 174 51" fill="none" xmlns="http://www.w3.org/2000/svg">
<g opacity="0.2" clip-path="url(#clip0_2059_130)">
<path d="M33.2136 0C29.8488 0 27.0923 2.74135 27.0923 6.08777C27.0923 9.4342 29.8488 12.1138 33.2136 12.1138C36.5784 12.1138 39.2727 9.4342 39.2727 6.08777C39.2727 2.74135 36.5784 0 33.2136 0ZM8.16992 13.4968C7.15178 13.4968 6.33231 14.3118 6.33231 15.3244C6.33231 16.337 7.15178 17.152 8.16992 17.152H28.1353C28.8182 17.1149 30.8048 17.2754 31.6988 18.4238C32.6424 19.6463 32.2079 21.7826 31.6988 23.3509C31.6988 23.3509 25.9004 41.8365 25.4658 43.2195C24.547 46.1708 21.6664 48.023 18.8976 46.8129C16.613 45.8127 16.464 43.6517 17.2338 41.5524C17.3331 41.2931 17.4573 41.1079 17.5691 40.8856C17.5691 40.8856 22.5356 31.5873 23.6282 28.9941C24.4353 27.0924 23.3923 25.7835 20.8966 25.7835H9.54813C8.52999 25.7835 7.71052 26.5985 7.71052 27.6111C7.71052 28.6236 8.52999 29.4386 9.54813 29.4386H12.7764C13.4593 29.4016 15.4955 29.488 16.2778 30.7105C17.7429 32.9826 16.7372 33.7235 14.5519 41.2808C14.4153 41.6759 14.2912 42.0834 14.2167 42.5033C14.2167 42.5033 12.7143 47.7884 17.4946 49.9741C21.9148 51.9869 27.0427 49.8382 28.5699 45.047C29.6377 41.6759 35.1878 24.4622 35.1878 24.4622C36.3177 20.9553 36.1314 18.1522 34.5794 16.1641C32.4314 13.4227 28.5947 13.4845 28.0111 13.5092H8.16992V13.4968ZM1.83761 19.5352C0.819474 19.5352 0 20.3502 0 21.3628C0 22.3753 0.819474 23.2397 1.83761 23.2397H25.3168C26.335 23.2397 27.1544 22.3753 27.1544 21.3628C27.1544 20.3502 26.335 19.5352 25.3168 19.5352H1.83761Z" fill="white"/>
<path d="M60.4831 12.012C57.6301 12.012 52.5513 12.3602 52.5513 15.0733C52.5513 19.0231 61.098 19.0591 61.098 21.3161C61.098 22.0004 60.3847 22.6126 58.7861 22.6126C56.548 22.6126 55.2814 22.4806 53.2154 22.1324C52.3423 21.9883 52.0472 23.6691 52.7727 23.8492C54.1254 24.1973 56.2405 24.4974 60.0527 24.4974C62.9057 24.4974 67.8738 23.9932 67.8738 21.268C67.8738 17.3183 59.3887 17.2943 59.3887 15.1934C59.3887 14.5091 60.1019 13.8968 61.7006 13.8968H67.0991C68.1935 13.8968 68.1935 12.012 67.0991 12.012H60.4831V12.012ZM80.7122 12.012C77.6133 12.012 72.3869 12.1921 72.3869 16.3699V20.1876C72.3869 24.3774 77.6133 24.5455 80.7122 24.5455C83.9956 24.5455 85.7541 24.2453 87.1068 23.8972C87.8446 23.7171 87.5372 22.0244 86.6641 22.1804C84.5982 22.5286 83.3438 22.6606 81.0934 22.6606C79.0029 22.6606 78.4495 22.1924 78.4495 20.9439V19.4913C78.4495 18.999 78.5725 18.903 79.1136 18.903H83.3561C84.18 18.903 84.18 17.2943 83.3561 17.2943H79.1136C78.5725 17.2943 78.4495 17.1983 78.4495 16.706V15.6256C78.4495 14.365 79.0029 13.9088 81.0934 13.9088H86.4428C87.5372 13.9088 87.5372 12.024 86.4428 12.024H80.7122V12.012ZM99.8345 12.012C96.7356 12.012 91.5092 12.1921 91.5092 16.3699V20.3556C91.5092 24.2453 96.5143 24.4494 99.6132 24.4494C102.245 24.4494 107.988 24.3174 107.988 20.6798V19.4913C107.988 18.0026 106.992 17.6064 105.012 17.6064H100.658C100.068 17.6064 100.068 19.2151 100.658 19.2151H101.987C102.528 19.2151 102.589 19.3232 102.589 19.8034V20.8238C102.589 22.0844 101.396 22.7567 99.6132 22.7567C97.8301 22.7567 97.1906 22.0724 97.1906 20.8238V15.6016C97.1906 14.341 98.1252 13.8848 100.216 13.8848H105.565C106.66 13.8848 106.66 12 105.565 12H99.8345V12.012ZM111.345 12.012C110.595 12.012 110.607 12.3121 110.791 12.9244L113.989 22.3965C114.419 23.561 115.354 24.3294 117.186 24.3294C119.018 24.3294 119.891 23.549 120.322 22.5046C120.322 22.5046 121.588 18.807 121.81 18.1467C121.957 17.6905 122.326 17.6905 122.474 18.1467C122.658 18.7109 123.913 22.3965 123.913 22.3965C124.528 23.6211 125.179 24.3294 127.048 24.3294C129.25 24.3294 130.209 23.453 130.578 22.3965C130.811 21.7362 132.508 16.0818 133.554 12.8164C133.763 12.1801 133.701 12.012 133.111 12.012H131.18C130.578 14.0049 128.721 19.9955 128.647 20.2476C128.512 20.7038 128.168 20.6918 127.983 20.2476C127.86 19.9355 125.782 14.389 125.45 13.5247C125.106 12.6603 124.159 12.024 123.076 12.024C122.105 12.024 121.195 12.5402 120.875 13.5247C120.556 14.5091 118.809 19.9835 118.723 20.2476C118.588 20.7038 118.207 20.7038 118.059 20.2476C117.961 19.9715 116.067 13.9208 115.464 12.012H111.345V12.012ZM145.236 12.012C142.236 12.012 137.464 11.988 137.464 15.6136V23.1408C137.464 23.8972 138.042 24.3294 139.998 24.3294C141.953 24.3294 142.531 23.8011 142.531 23.1408V19.6953C142.531 19.2031 142.654 19.1071 143.195 19.1071H147.167C147.708 19.1071 147.831 19.2151 147.831 19.6953V23.1408C147.831 23.8011 148.409 24.3294 150.364 24.3294C152.319 24.3294 152.897 23.9092 152.897 23.1408V15.6136C152.897 11.988 148.237 12.012 145.236 12.012ZM156.205 12.012C155.714 12.012 155.504 12.3722 155.873 12.8164C157.115 14.329 160.03 17.8946 160.227 18.1467C160.473 18.4468 160.829 18.867 160.829 19.3352V23.1529C160.829 23.8131 161.469 24.3414 163.424 24.3414C165.379 24.3414 166.068 23.9212 166.068 23.1529V19.011C166.068 18.5188 166.4 18.2547 166.67 17.9306C166.867 17.6785 169.622 14.377 170.913 12.8164C171.282 12.3602 171.085 12.012 170.581 12.012H168.269C168.269 12.012 165.305 15.8057 165.072 16.1058C164.838 16.4059 164.371 16.3939 164.137 16.1058C163.904 15.8177 161.051 12.012 161.051 12.012H156.205V12.012ZM172.844 12.012C172.204 12.012 171.688 12.5282 171.688 13.1405C171.688 13.7528 172.204 14.269 172.844 14.269C173.471 14.269 174 13.7528 174 13.1405C174 12.5162 173.483 12.012 172.844 12.012ZM172.844 12.2761C173.311 12.2761 173.729 12.6843 173.729 13.1405C173.729 13.5967 173.311 13.9448 172.844 13.9448C172.376 13.9448 172.02 13.5967 172.02 13.1405C172.02 12.6843 172.376 12.2761 172.844 12.2761ZM172.352 12.7083C172.315 12.7083 172.303 12.7203 172.303 12.7563V13.4526C172.303 13.5007 172.34 13.5007 172.462 13.5007C172.598 13.5007 172.622 13.4886 172.622 13.4526V12.8644C172.622 12.8284 172.635 12.8164 172.672 12.8164H172.831C172.942 12.8164 172.991 12.8764 172.991 12.9244C172.991 13.0084 172.856 13.0324 172.721 13.0324H172.672C172.61 13.0324 172.622 13.2125 172.672 13.2485C172.807 13.3566 172.93 13.4646 173.004 13.5127C173.028 13.5367 173.077 13.5127 173.114 13.5127H173.446C173.483 13.5127 173.483 13.4886 173.446 13.4646L173.004 13.1405C173.114 13.1405 173.446 13.1525 173.446 12.9244C173.446 12.7683 173.237 12.7083 172.954 12.7083H172.352V12.7083ZM145.236 13.6207C147.265 13.6207 147.831 14.1489 147.831 15.3975V16.8981C147.831 17.4264 147.72 17.4864 147.228 17.4864H143.207C142.666 17.4864 142.543 17.3783 142.543 16.8981V15.3975C142.543 14.1489 143.207 13.6207 145.236 13.6207Z" fill="white"/>
<path d="M58.4838 30.2604C57.6438 30.2604 57.0002 30.5168 56.5529 31.0295C56.1056 31.5422 55.882 32.2677 55.882 33.2059C55.882 34.1549 56.1274 34.8859 56.6183 35.3986C57.1202 35.9113 57.7911 36.1677 58.6311 36.1677C59.0783 36.1677 59.4547 36.1077 59.7602 35.9877C60.0765 35.8677 60.3765 35.7313 60.6602 35.5786C60.8456 35.7313 60.9874 35.9168 61.0856 36.1349C61.1947 36.3422 61.2493 36.5877 61.2493 36.8713C61.2493 37.3186 60.9983 37.7004 60.4965 38.0168C60.0056 38.3222 59.2529 38.4749 58.2383 38.4749C57.5074 38.4749 56.8202 38.3713 56.1765 38.164C55.5329 37.9568 54.9711 37.6404 54.4911 37.2149C54.0111 36.7786 53.6293 36.2331 53.3456 35.5786C53.0729 34.9131 52.9365 34.1222 52.9365 33.2059C52.9365 32.3549 53.0674 31.6077 53.3293 30.964C53.602 30.3095 53.9674 29.7586 54.4256 29.3113C54.8947 28.864 55.4402 28.5259 56.062 28.2968C56.6838 28.0677 57.3493 27.9531 58.0583 27.9531C59.062 27.9531 59.8365 28.1168 60.382 28.444C60.9383 28.7713 61.2165 29.1913 61.2165 29.704C61.2165 29.9877 61.1456 30.2331 61.0038 30.4404C60.862 30.6477 60.6983 30.8113 60.5129 30.9313C60.2293 30.7459 59.9238 30.5877 59.5965 30.4568C59.2802 30.3259 58.9093 30.2604 58.4838 30.2604Z" fill="white"/>
<path d="M65.1264 28.5586C65.3119 28.4495 65.59 28.3459 65.961 28.2477C66.3428 28.1495 66.7246 28.1004 67.1064 28.1004C67.6519 28.1004 68.1319 28.1822 68.5464 28.3459C68.9719 28.4986 69.2446 28.744 69.3646 29.0822C69.561 29.6495 69.7737 30.3095 70.0028 31.0622C70.2319 31.8149 70.461 32.5949 70.69 33.4022C70.9191 34.1986 71.1428 34.9895 71.361 35.7749C71.5791 36.5495 71.77 37.2368 71.9337 37.8368C71.8028 37.9895 71.6064 38.1095 71.3446 38.1968C71.0828 38.2949 70.7719 38.344 70.4119 38.344C70.15 38.344 69.9264 38.3222 69.741 38.2786C69.5664 38.2349 69.4191 38.1695 69.2991 38.0822C69.19 37.9949 69.0973 37.8804 69.021 37.7386C68.9555 37.5968 68.8955 37.4331 68.841 37.2477L68.5464 36.1186H65.5846C65.4973 36.4459 65.41 36.784 65.3228 37.1331C65.2355 37.4822 65.1482 37.8204 65.061 38.1477C64.9082 38.2022 64.7446 38.2459 64.57 38.2786C64.4064 38.3222 64.2046 38.344 63.9646 38.344C63.4082 38.344 62.9937 38.2513 62.721 38.0659C62.4591 37.8695 62.3282 37.6022 62.3282 37.264C62.3282 37.1113 62.35 36.9586 62.3937 36.8059C62.4373 36.6531 62.4864 36.4731 62.541 36.2659C62.6173 35.9713 62.721 35.6059 62.8519 35.1695C62.9937 34.7331 63.1464 34.264 63.31 33.7622C63.4737 33.2495 63.6482 32.7259 63.8337 32.1913C64.0191 31.6568 64.1937 31.1549 64.3573 30.6859C64.521 30.2059 64.6682 29.7804 64.7991 29.4095C64.941 29.0386 65.05 28.7549 65.1264 28.5586ZM67.09 30.6695C66.9373 31.1277 66.7628 31.6404 66.5664 32.2077C66.381 32.764 66.2119 33.3313 66.0591 33.9095H68.0882C67.9355 33.3204 67.7773 32.7477 67.6137 32.1913C67.461 31.624 67.3191 31.1168 67.1882 30.6695H67.09Z" fill="white"/>
<path d="M74.7966 38.2295C74.3275 38.2295 73.9566 38.0931 73.6838 37.8204C73.4111 37.5477 73.2747 37.1768 73.2747 36.7077V28.2477C73.3947 28.2259 73.5856 28.1986 73.8475 28.1659C74.1093 28.1222 74.3602 28.1004 74.6002 28.1004C74.8511 28.1004 75.0693 28.1222 75.2547 28.1659C75.4511 28.1986 75.6147 28.264 75.7456 28.3622C75.8766 28.4604 75.9747 28.5968 76.0402 28.7713C76.1056 28.9459 76.1384 29.1749 76.1384 29.4586V35.9222H79.8856C79.962 36.0422 80.0329 36.2059 80.0984 36.4131C80.1638 36.6095 80.1966 36.8168 80.1966 37.0349C80.1966 37.4713 80.1038 37.7822 79.9184 37.9677C79.7329 38.1422 79.4875 38.2295 79.182 38.2295H74.7966Z" fill="white"/>
<path d="M84.5279 38.1149C84.4079 38.1477 84.217 38.1804 83.9552 38.2131C83.7043 38.2459 83.4534 38.2622 83.2025 38.2622C82.9516 38.2622 82.7279 38.2404 82.5316 38.1968C82.3461 38.164 82.1879 38.0986 82.057 38.0004C81.9261 37.9022 81.8279 37.7659 81.7625 37.5913C81.697 37.4168 81.6643 37.1877 81.6643 36.904V28.264C81.7843 28.2422 81.9752 28.2149 82.237 28.1822C82.4988 28.1386 82.7497 28.1168 82.9897 28.1168C83.2407 28.1168 83.4588 28.1386 83.6443 28.1822C83.8407 28.2149 84.0043 28.2804 84.1352 28.3786C84.2661 28.4768 84.3643 28.6131 84.4297 28.7877C84.4952 28.9622 84.5279 29.1913 84.5279 29.4749V38.1149Z" fill="white"/>
<path d="M93.621 28.264C93.6974 28.384 93.7628 28.5477 93.8174 28.7549C93.8828 28.9513 93.9155 29.1586 93.9155 29.3768C93.9155 29.8022 93.8228 30.1077 93.6374 30.2931C93.4628 30.4677 93.2228 30.5549 92.9174 30.5549H89.481V32.404H93.0646C93.1519 32.524 93.2228 32.6822 93.2774 32.8786C93.3428 33.0749 93.3755 33.2822 93.3755 33.5004C93.3755 33.9149 93.2828 34.2149 93.0974 34.4004C92.9228 34.5749 92.6828 34.6622 92.3774 34.6622H89.5137V38.1149C89.3937 38.1477 89.2028 38.1804 88.941 38.2131C88.6901 38.2459 88.4392 38.2622 88.1883 38.2622C87.9374 38.2622 87.7137 38.2404 87.5174 38.1968C87.3319 38.164 87.1737 38.0986 87.0428 38.0004C86.9119 37.9022 86.8137 37.7659 86.7483 37.5913C86.6828 37.4168 86.6501 37.1877 86.6501 36.904V29.7859C86.6501 29.3168 86.7865 28.9459 87.0592 28.6731C87.3319 28.4004 87.7028 28.264 88.1719 28.264H93.621Z" fill="white"/>
<path d="M94.7725 33.2059C94.7725 32.3549 94.9034 31.6022 95.1652 30.9477C95.4379 30.2931 95.8034 29.7477 96.2616 29.3113C96.7306 28.864 97.2761 28.5259 97.8979 28.2968C98.5306 28.0677 99.2125 27.9531 99.9434 27.9531C100.674 27.9531 101.351 28.0677 101.972 28.2968C102.605 28.5259 103.156 28.864 103.625 29.3113C104.094 29.7477 104.46 30.2931 104.722 30.9477C104.994 31.6022 105.131 32.3549 105.131 33.2059C105.131 34.0568 105 34.8149 104.738 35.4804C104.476 36.1349 104.111 36.6859 103.642 37.1331C103.183 37.5695 102.638 37.9022 102.005 38.1313C101.372 38.3604 100.685 38.4749 99.9434 38.4749C99.2016 38.4749 98.5143 38.3604 97.8816 38.1313C97.2488 37.8913 96.7034 37.5477 96.2452 37.1004C95.787 36.6531 95.427 36.1022 95.1652 35.4477C94.9034 34.7931 94.7725 34.0459 94.7725 33.2059ZM97.7179 33.2059C97.7179 34.1986 97.9197 34.9404 98.3234 35.4313C98.727 35.9222 99.267 36.1677 99.9434 36.1677C100.631 36.1677 101.176 35.9222 101.58 35.4313C101.983 34.9404 102.185 34.1986 102.185 33.2059C102.185 32.224 101.983 31.4877 101.58 30.9968C101.187 30.5059 100.647 30.2604 99.9597 30.2604C99.2834 30.2604 98.7379 30.5059 98.3234 30.9968C97.9197 31.4768 97.7179 32.2131 97.7179 33.2059Z" fill="white"/>
<path d="M109.616 34.9731V38.1149C109.496 38.1477 109.305 38.1804 109.044 38.2131C108.793 38.2459 108.542 38.2622 108.291 38.2622C108.04 38.2622 107.816 38.2404 107.62 38.1968C107.435 38.164 107.276 38.0986 107.145 38.0004C107.025 37.9022 106.933 37.7659 106.867 37.5913C106.802 37.4168 106.769 37.1877 106.769 36.904V29.1968C106.769 28.9677 106.829 28.7931 106.949 28.6731C107.08 28.5422 107.255 28.4386 107.473 28.3622C107.844 28.2313 108.275 28.1386 108.765 28.084C109.256 28.0186 109.78 27.9859 110.336 27.9859C111.842 27.9859 112.976 28.3022 113.74 28.9349C114.504 29.5677 114.885 30.424 114.885 31.504C114.885 32.1804 114.711 32.7586 114.362 33.2386C114.013 33.7186 113.598 34.0895 113.118 34.3513C113.511 34.8859 113.898 35.3877 114.28 35.8568C114.662 36.3259 114.962 36.7513 115.18 37.1331C115.071 37.5149 114.869 37.8095 114.575 38.0168C114.291 38.2131 113.969 38.3113 113.609 38.3113C113.369 38.3113 113.162 38.284 112.987 38.2295C112.813 38.1749 112.66 38.0986 112.529 38.0004C112.398 37.9022 112.278 37.7822 112.169 37.6404C112.06 37.4986 111.956 37.3459 111.858 37.1822L110.484 34.9731H109.616ZM110.647 32.7968C111.062 32.7968 111.389 32.6931 111.629 32.4859C111.869 32.2677 111.989 31.9513 111.989 31.5368C111.989 31.1222 111.853 30.8113 111.58 30.604C111.318 30.3859 110.898 30.2768 110.32 30.2768C110.156 30.2768 110.025 30.2822 109.927 30.2931C109.829 30.304 109.72 30.3204 109.6 30.3422V32.7968H110.647Z" fill="white"/>
<path d="M125.724 37.8368C125.572 37.9895 125.348 38.104 125.053 38.1804C124.77 38.2677 124.426 38.3113 124.022 38.3113C123.619 38.3113 123.237 38.2513 122.877 38.1313C122.517 38.0113 122.222 37.7222 121.993 37.264L120.373 33.9586C120.21 33.6204 120.062 33.304 119.932 33.0095C119.801 32.704 119.659 32.3549 119.506 31.9622L119.408 31.9786C119.452 32.5677 119.473 33.1677 119.473 33.7786C119.484 34.3895 119.49 34.9895 119.49 35.5786V38.1149C119.37 38.1477 119.184 38.1804 118.933 38.2131C118.693 38.2459 118.453 38.2622 118.213 38.2622C117.973 38.2622 117.761 38.2459 117.575 38.2131C117.39 38.1804 117.237 38.1149 117.117 38.0168C116.997 37.9186 116.904 37.7877 116.839 37.624C116.773 37.4495 116.741 37.2259 116.741 36.9531V28.7713C116.893 28.5531 117.128 28.3895 117.444 28.2804C117.761 28.1713 118.099 28.1168 118.459 28.1168C118.862 28.1168 119.244 28.1822 119.604 28.3131C119.975 28.4331 120.27 28.7168 120.488 29.164L122.124 32.4695C122.288 32.8077 122.435 33.1295 122.566 33.4349C122.697 33.7295 122.839 34.0731 122.992 34.4659L123.073 34.4495C123.03 33.8604 123.002 33.2713 122.992 32.6822C122.981 32.0931 122.975 31.504 122.975 30.9149V28.264C123.095 28.2313 123.275 28.1986 123.515 28.1659C123.766 28.1331 124.012 28.1168 124.252 28.1168C124.732 28.1168 125.097 28.204 125.348 28.3786C125.599 28.5422 125.724 28.8913 125.724 29.4259V37.8368Z" fill="white"/>
<path d="M130.71 38.1149C130.59 38.1477 130.4 38.1804 130.138 38.2131C129.887 38.2459 129.636 38.2622 129.385 38.2622C129.134 38.2622 128.91 38.2404 128.714 38.1968C128.529 38.164 128.37 38.0986 128.24 38.0004C128.109 37.9022 128.01 37.7659 127.945 37.5913C127.88 37.4168 127.847 37.1877 127.847 36.904V28.264C127.967 28.2422 128.158 28.2149 128.42 28.1822C128.681 28.1386 128.932 28.1168 129.172 28.1168C129.423 28.1168 129.641 28.1386 129.827 28.1822C130.023 28.2149 130.187 28.2804 130.318 28.3786C130.449 28.4768 130.547 28.6131 130.612 28.7877C130.678 28.9622 130.71 29.1913 130.71 29.4749V38.1149Z" fill="white"/>
<path d="M134.944 28.5586C135.129 28.4495 135.407 28.3459 135.778 28.2477C136.16 28.1495 136.542 28.1004 136.924 28.1004C137.469 28.1004 137.949 28.1822 138.364 28.3459C138.789 28.4986 139.062 28.744 139.182 29.0822C139.378 29.6495 139.591 30.3095 139.82 31.0622C140.049 31.8149 140.278 32.5949 140.507 33.4022C140.736 34.1986 140.96 34.9895 141.178 35.7749C141.396 36.5495 141.587 37.2368 141.751 37.8368C141.62 37.9895 141.424 38.1095 141.162 38.1968C140.9 38.2949 140.589 38.344 140.229 38.344C139.967 38.344 139.744 38.3222 139.558 38.2786C139.384 38.2349 139.236 38.1695 139.116 38.0822C139.007 37.9949 138.914 37.8804 138.838 37.7386C138.773 37.5968 138.713 37.4331 138.658 37.2477L138.364 36.1186H135.402C135.314 36.4459 135.227 36.784 135.14 37.1331C135.053 37.4822 134.965 37.8204 134.878 38.1477C134.725 38.2022 134.562 38.2459 134.387 38.2786C134.224 38.3222 134.022 38.344 133.782 38.344C133.225 38.344 132.811 38.2513 132.538 38.0659C132.276 37.8695 132.145 37.6022 132.145 37.264C132.145 37.1113 132.167 36.9586 132.211 36.8059C132.254 36.6531 132.304 36.4731 132.358 36.2659C132.434 35.9713 132.538 35.6059 132.669 35.1695C132.811 34.7331 132.964 34.264 133.127 33.7622C133.291 33.2495 133.465 32.7259 133.651 32.1913C133.836 31.6568 134.011 31.1549 134.174 30.6859C134.338 30.2059 134.485 29.7804 134.616 29.4095C134.758 29.0386 134.867 28.7549 134.944 28.5586ZM136.907 30.6695C136.754 31.1277 136.58 31.6404 136.384 32.2077C136.198 32.764 136.029 33.3313 135.876 33.9095H137.905C137.753 33.3204 137.594 32.7477 137.431 32.1913C137.278 31.624 137.136 31.1168 137.005 30.6695H136.907Z" fill="white"/>
</g>
<defs>
<clipPath id="clip0_2059_130">
<rect width="174" height="50.7273" fill="white"/>
</clipPath>
</defs>
</svg>
