<svg width="216" height="63" viewBox="0 0 216 63" fill="none" xmlns="http://www.w3.org/2000/svg">
<g clip-path="url(#clip0_2059_1344)">
<path d="M41.2306 0C37.0536 0 33.6319 3.40305 33.6319 7.55723C33.6319 11.7114 37.0536 15.0378 41.2306 15.0378C45.4077 15.0378 48.7523 11.7114 48.7523 7.55723C48.7523 3.40305 45.4077 0 41.2306 0ZM10.142 16.7547C8.87807 16.7547 7.8608 17.7664 7.8608 19.0234C7.8608 20.2804 8.87807 21.2921 10.142 21.2921H34.9266C35.7743 21.2461 38.2405 21.4454 39.3502 22.871C40.5216 24.3886 39.9822 27.0405 39.3502 28.9873C39.3502 28.9873 32.1522 51.9349 31.6127 53.6518C30.4721 57.3154 26.8963 59.6148 23.4591 58.1125C20.623 56.8709 20.4381 54.1883 21.3937 51.5823C21.517 51.2604 21.6711 51.0305 21.8099 50.7546C21.8099 50.7546 27.9752 39.2118 29.3316 35.9927C30.3334 33.632 29.0387 32.0071 25.9406 32.0071H11.8528C10.589 32.0071 9.57168 33.0188 9.57168 34.2758C9.57168 35.5328 10.589 36.5445 11.8528 36.5445H15.8603C16.708 36.4985 19.2358 36.6058 20.2069 38.1234C22.0256 40.944 20.7772 41.8637 18.0644 51.2451C17.8949 51.7356 17.7407 52.2415 17.6483 52.7627C17.6483 52.7627 15.7832 59.3235 21.7174 62.0368C27.2045 64.5354 33.5702 61.8681 35.4661 55.9205C36.7916 51.7356 43.6814 30.3669 43.6814 30.3669C45.084 26.0134 44.8528 22.5337 42.9261 20.0658C40.2596 16.6627 35.4969 16.7394 34.7725 16.77H10.142V16.7547ZM2.28117 24.2506C1.01728 24.2506 0 25.2623 0 26.5193C0 27.7763 1.01728 28.8493 2.28117 28.8493H31.4278C32.6917 28.8493 33.7089 27.7763 33.7089 26.5193C33.7089 25.2623 32.6917 24.2506 31.4278 24.2506H2.28117Z" fill="#323941"/>
<path d="M75.0827 14.9133C71.5411 14.9133 65.2364 15.3455 65.2364 18.7136C65.2364 23.6167 75.846 23.6614 75.846 26.4632C75.846 27.3127 74.9606 28.0727 72.9761 28.0727C70.1977 28.0727 68.6254 27.9088 66.0607 27.4766C64.9769 27.2978 64.6105 29.3842 65.5112 29.6077C67.1904 30.0399 69.8161 30.4125 74.5484 30.4125C78.0901 30.4125 84.2574 29.7866 84.2574 26.4036C84.2574 21.5005 73.7241 21.4707 73.7241 18.8626C73.7241 18.0132 74.6095 17.2531 76.594 17.2531H83.2956C84.6543 17.2531 84.6543 14.9133 83.2956 14.9133H75.0827ZM100.195 14.9133C96.3478 14.9133 89.8599 15.1369 89.8599 20.3231V25.0623C89.8599 30.2635 96.3478 30.4721 100.195 30.4721C104.271 30.4721 106.454 30.0995 108.133 29.6673C109.049 29.4438 108.667 27.3425 107.583 27.5362C105.019 27.9684 103.462 28.1323 100.668 28.1323C98.0728 28.1323 97.3858 27.5511 97.3858 26.0012V24.1979C97.3858 23.5869 97.5385 23.4677 98.2102 23.4677H103.477C104.5 23.4677 104.5 21.4707 103.477 21.4707H98.2102C97.5385 21.4707 97.3858 21.3514 97.3858 20.7404V19.3992C97.3858 17.8343 98.0728 17.268 100.668 17.268H107.308C108.667 17.268 108.667 14.9282 107.308 14.9282H100.195V14.9133ZM123.933 14.9133C120.086 14.9133 113.598 15.1369 113.598 20.3231V25.271C113.598 30.0995 119.811 30.3529 123.658 30.3529C126.925 30.3529 134.054 30.189 134.054 25.6733V24.1979C134.054 22.35 132.817 21.8582 130.36 21.8582H124.956C124.223 21.8582 124.223 23.8552 124.956 23.8552H126.604C127.276 23.8552 127.352 23.9893 127.352 24.5854V25.8522C127.352 27.417 125.871 28.2516 123.658 28.2516C121.444 28.2516 120.651 27.4021 120.651 25.8522V19.3693C120.651 17.8045 121.811 17.2382 124.406 17.2382H131.047C132.405 17.2382 132.405 14.8984 131.047 14.8984H123.933V14.9133ZM138.221 14.9133C137.29 14.9133 137.305 15.2859 137.534 16.046L141.503 27.8045C142.038 29.2501 143.198 30.2039 145.473 30.2039C147.747 30.2039 148.831 29.2352 149.365 27.9386C149.365 27.9386 150.938 23.3485 151.212 22.5288C151.396 21.9625 151.854 21.9625 152.037 22.5288C152.266 23.2292 153.823 27.8045 153.823 27.8045C154.586 29.3246 155.395 30.2039 157.716 30.2039C160.448 30.2039 161.639 29.1159 162.097 27.8045C162.387 26.9848 164.494 19.9655 165.791 15.9118C166.051 15.122 165.974 14.9133 165.242 14.9133H162.845C162.097 17.3872 159.792 24.8239 159.7 25.1368C159.532 25.7031 159.105 25.6882 158.876 25.1368C158.723 24.7493 156.143 17.8641 155.731 16.7911C155.304 15.7181 154.128 14.9282 152.785 14.9282C151.579 14.9282 150.449 15.5691 150.052 16.7911C149.655 18.0132 147.488 24.809 147.381 25.1368C147.213 25.7031 146.74 25.7031 146.556 25.1368C146.434 24.7941 144.083 17.2829 143.335 14.9133H138.221ZM180.293 14.9133C176.569 14.9133 170.646 14.8835 170.646 19.3843V28.7285C170.646 29.6673 171.363 30.2039 173.79 30.2039C176.218 30.2039 176.935 29.5481 176.935 28.7285V24.4513C176.935 23.8403 177.088 23.721 177.759 23.721H182.69C183.362 23.721 183.515 23.8552 183.515 24.4513V28.7285C183.515 29.5481 184.232 30.2039 186.659 30.2039C189.086 30.2039 189.804 29.6823 189.804 28.7285V19.3843C189.804 14.8835 184.018 14.9133 180.293 14.9133ZM193.91 14.9133C193.3 14.9133 193.04 15.3604 193.498 15.9118C195.04 17.7896 198.658 22.2158 198.902 22.5288C199.208 22.9014 199.65 23.423 199.65 24.0042V28.7434C199.65 29.563 200.444 30.2188 202.871 30.2188C205.299 30.2188 206.153 29.6972 206.153 28.7434V23.6018C206.153 22.9908 206.566 22.6629 206.901 22.2605C207.146 21.9476 210.565 17.8492 212.168 15.9118C212.626 15.3455 212.382 14.9133 211.756 14.9133H208.886C208.886 14.9133 205.207 19.6227 204.917 19.9953C204.627 20.3678 204.047 20.3529 203.757 19.9953C203.467 19.6376 199.925 14.9133 199.925 14.9133H193.91ZM214.565 14.9133C213.771 14.9133 213.13 15.5542 213.13 16.3142C213.13 17.0743 213.771 17.7151 214.565 17.7151C215.343 17.7151 216 17.0743 216 16.3142C216 15.5393 215.359 14.9133 214.565 14.9133ZM214.565 15.2412C215.145 15.2412 215.664 15.7479 215.664 16.3142C215.664 16.8805 215.145 17.3127 214.565 17.3127C213.985 17.3127 213.542 16.8805 213.542 16.3142C213.542 15.7479 213.985 15.2412 214.565 15.2412ZM213.954 15.7777C213.908 15.7777 213.893 15.7926 213.893 15.8373V16.7017C213.893 16.7613 213.939 16.7613 214.092 16.7613C214.26 16.7613 214.29 16.7464 214.29 16.7017V15.9715C214.29 15.9267 214.305 15.9118 214.351 15.9118H214.55C214.687 15.9118 214.748 15.9864 214.748 16.046C214.748 16.1503 214.58 16.1801 214.412 16.1801H214.351C214.275 16.1801 214.29 16.4036 214.351 16.4484C214.519 16.5825 214.672 16.7166 214.763 16.7762C214.794 16.806 214.855 16.7762 214.901 16.7762H215.313C215.359 16.7762 215.359 16.7464 215.313 16.7166L214.763 16.3142C214.901 16.3142 215.313 16.3291 215.313 16.046C215.313 15.8522 215.053 15.7777 214.702 15.7777H213.954ZM180.293 16.9103C182.812 16.9103 183.515 17.5661 183.515 19.116V20.9789C183.515 21.6346 183.377 21.7091 182.767 21.7091H177.775C177.103 21.7091 176.95 21.575 176.95 20.9789V19.116C176.95 17.5661 177.775 16.9103 180.293 16.9103Z" fill="#323941"/>
<path d="M72.6001 37.5673C71.5574 37.5673 70.7584 37.8856 70.2031 38.5221C69.6479 39.1585 69.3703 40.0591 69.3703 41.2238C69.3703 42.4019 69.675 43.3093 70.2844 43.9458C70.9073 44.5822 71.7402 44.9005 72.783 44.9005C73.3382 44.9005 73.8054 44.826 74.1846 44.677C74.5773 44.5281 74.9497 44.3588 75.3018 44.1692C75.5321 44.3588 75.7081 44.589 75.83 44.8599C75.9654 45.1172 76.0331 45.4219 76.0331 45.774C76.0331 46.3292 75.7216 46.8032 75.0987 47.1959C74.4893 47.5751 73.5549 47.7647 72.2954 47.7647C71.3881 47.7647 70.5349 47.636 69.7359 47.3787C68.9369 47.1214 68.2395 46.7287 67.6436 46.2006C67.0478 45.6589 66.5738 44.9817 66.2217 44.1692C65.8831 43.3431 65.7139 42.3613 65.7139 41.2238C65.7139 40.1675 65.8764 39.2398 66.2014 38.4408C66.5399 37.6283 66.9936 36.9444 67.5624 36.3891C68.1447 35.8339 68.8218 35.4141 69.5937 35.1297C70.3657 34.8453 71.1917 34.7031 72.072 34.7031C73.3179 34.7031 74.2794 34.9063 74.9565 35.3125C75.6472 35.7188 75.9925 36.2402 75.9925 36.8767C75.9925 37.2288 75.9045 37.5335 75.7284 37.7908C75.5524 38.0481 75.3492 38.2512 75.119 38.4002C74.7669 38.17 74.3877 37.9736 73.9815 37.8111C73.5887 37.6486 73.1283 37.5673 72.6001 37.5673Z" fill="#323941"/>
<path d="M80.8461 35.4547C81.0764 35.3193 81.4217 35.1906 81.8821 35.0688C82.3561 34.9469 82.8301 34.8859 83.3041 34.8859C83.9812 34.8859 84.577 34.9875 85.0917 35.1906C85.6198 35.3802 85.9584 35.6849 86.1073 36.1048C86.3511 36.809 86.6152 37.6283 86.8996 38.5627C87.1839 39.4971 87.4683 40.4654 87.7527 41.4675C88.0371 42.4561 88.3147 43.4379 88.5856 44.413C88.8564 45.3745 89.0934 46.2276 89.2965 46.9725C89.134 47.1621 88.8903 47.311 88.5653 47.4194C88.2402 47.5412 87.8543 47.6022 87.4074 47.6022C87.0824 47.6022 86.8048 47.5751 86.5745 47.5209C86.3579 47.4668 86.175 47.3855 86.0261 47.2772C85.8907 47.1688 85.7755 47.0266 85.6807 46.8506C85.5995 46.6745 85.525 46.4714 85.4573 46.2412L85.0917 44.8396H81.4149C81.3066 45.2458 81.1982 45.6656 81.0899 46.099C80.9816 46.5323 80.8732 46.9522 80.7649 47.3584C80.5753 47.4261 80.3722 47.4803 80.1555 47.5209C79.9523 47.5751 79.7018 47.6022 79.4039 47.6022C78.7132 47.6022 78.1986 47.4871 77.8601 47.2569C77.535 47.0131 77.3725 46.6813 77.3725 46.2615C77.3725 46.0719 77.3996 45.8823 77.4538 45.6927C77.508 45.5031 77.5689 45.2797 77.6366 45.0224C77.7314 44.6567 77.8601 44.2031 78.0226 43.6614C78.1986 43.1197 78.3882 42.5374 78.5913 41.9144C78.7945 41.2779 79.0112 40.6279 79.2414 39.9643C79.4716 39.3007 79.6883 38.6778 79.8914 38.0955C80.0945 37.4996 80.2774 36.9715 80.4399 36.511C80.6159 36.0506 80.7513 35.6985 80.8461 35.4547ZM83.2838 38.0752C83.0942 38.6439 82.8775 39.2804 82.6337 39.9846C82.4035 40.6753 82.1936 41.3795 82.004 42.0972H84.5229C84.3333 41.3659 84.1369 40.655 83.9338 39.9643C83.7442 39.2601 83.5681 38.6304 83.4056 38.0752H83.2838Z" fill="#323941"/>
<path d="M92.8505 47.46C92.2681 47.46 91.8077 47.2907 91.4691 46.9522C91.1306 46.6136 90.9613 46.1532 90.9613 45.5708V35.0688C91.1103 35.0417 91.3473 35.0078 91.6723 34.9672C91.9973 34.913 92.3088 34.8859 92.6067 34.8859C92.9182 34.8859 93.189 34.913 93.4192 34.9672C93.663 35.0078 93.8661 35.0891 94.0286 35.211C94.1911 35.3328 94.313 35.5021 94.3943 35.7188C94.4755 35.9355 94.5162 36.2199 94.5162 36.572V44.5958H99.1679C99.2627 44.7448 99.3508 44.9479 99.432 45.2052C99.5133 45.449 99.5539 45.7063 99.5539 45.9771C99.5539 46.5188 99.4388 46.9048 99.2086 47.135C98.9784 47.3517 98.6737 47.46 98.2945 47.46H92.8505Z" fill="#323941"/>
<path d="M104.931 47.3178C104.782 47.3584 104.545 47.399 104.22 47.4397C103.908 47.4803 103.597 47.5006 103.285 47.5006C102.974 47.5006 102.696 47.4735 102.453 47.4194C102.222 47.3787 102.026 47.2975 101.863 47.1756C101.701 47.0537 101.579 46.8844 101.498 46.6678C101.417 46.4511 101.376 46.1667 101.376 45.8146V35.0891C101.525 35.062 101.762 35.0281 102.087 34.9875C102.412 34.9333 102.723 34.9063 103.021 34.9063C103.333 34.9063 103.604 34.9333 103.834 34.9875C104.078 35.0281 104.281 35.1094 104.443 35.2313C104.606 35.3532 104.728 35.5224 104.809 35.7391C104.89 35.9558 104.931 36.2402 104.931 36.5923V47.3178Z" fill="#323941"/>
<path d="M116.219 35.0891C116.314 35.238 116.395 35.4412 116.462 35.6985C116.544 35.9422 116.584 36.1996 116.584 36.4704C116.584 36.9985 116.469 37.3777 116.239 37.608C116.022 37.8246 115.724 37.933 115.345 37.933H111.079V40.2284H115.528C115.636 40.3774 115.724 40.5737 115.792 40.8175C115.873 41.0612 115.914 41.3185 115.914 41.5894C115.914 42.104 115.799 42.4764 115.569 42.7066C115.352 42.9233 115.054 43.0317 114.675 43.0317H111.12V47.3178C110.971 47.3584 110.734 47.399 110.409 47.4397C110.098 47.4803 109.786 47.5006 109.475 47.5006C109.163 47.5006 108.886 47.4735 108.642 47.4194C108.412 47.3787 108.215 47.2975 108.053 47.1756C107.89 47.0537 107.768 46.8844 107.687 46.6678C107.606 46.4511 107.565 46.1667 107.565 45.8146V36.9782C107.565 36.3959 107.734 35.9355 108.073 35.5969C108.412 35.2584 108.872 35.0891 109.454 35.0891H116.219Z" fill="#323941"/>
<path d="M117.648 41.2238C117.648 40.1675 117.811 39.233 118.136 38.4205C118.474 37.608 118.928 36.9308 119.497 36.3891C120.079 35.8339 120.756 35.4141 121.528 35.1297C122.313 34.8453 123.16 34.7031 124.067 34.7031C124.975 34.7031 125.814 34.8453 126.586 35.1297C127.372 35.4141 128.055 35.8339 128.638 36.3891C129.22 36.9308 129.674 37.608 129.999 38.4205C130.337 39.233 130.507 40.1675 130.507 41.2238C130.507 42.2801 130.344 43.2212 130.019 44.0473C129.694 44.8599 129.24 45.5438 128.658 46.099C128.089 46.6407 127.412 47.0537 126.627 47.3381C125.841 47.6225 124.988 47.7647 124.067 47.7647C123.146 47.7647 122.293 47.6225 121.508 47.3381C120.722 47.0402 120.045 46.6136 119.476 46.0584C118.908 45.5031 118.461 44.8192 118.136 44.0067C117.811 43.1942 117.648 42.2665 117.648 41.2238ZM121.305 41.2238C121.305 42.4561 121.555 43.377 122.056 43.9864C122.557 44.5958 123.228 44.9005 124.067 44.9005C124.92 44.9005 125.597 44.5958 126.099 43.9864C126.6 43.377 126.85 42.4561 126.85 41.2238C126.85 40.0049 126.6 39.0908 126.099 38.4814C125.611 37.872 124.941 37.5673 124.088 37.5673C123.248 37.5673 122.571 37.872 122.056 38.4814C121.555 39.0773 121.305 39.9914 121.305 41.2238Z" fill="#323941"/>
<path d="M136.075 43.4176V47.3178C135.926 47.3584 135.689 47.399 135.364 47.4397C135.053 47.4803 134.741 47.5006 134.43 47.5006C134.118 47.5006 133.841 47.4735 133.597 47.4194C133.367 47.3787 133.17 47.2975 133.008 47.1756C132.859 47.0537 132.744 46.8844 132.662 46.6678C132.581 46.4511 132.54 46.1667 132.54 45.8146V36.2469C132.54 35.9626 132.615 35.7459 132.764 35.5969C132.926 35.4344 133.143 35.3058 133.414 35.211C133.874 35.0485 134.409 34.9333 135.019 34.8656C135.628 34.7844 136.278 34.7438 136.969 34.7438C138.838 34.7438 140.246 35.1365 141.194 35.9219C142.142 36.7074 142.616 37.7705 142.616 39.1111C142.616 39.9508 142.399 40.6685 141.966 41.2644C141.533 41.8602 141.018 42.3207 140.422 42.6457C140.91 43.3093 141.39 43.9322 141.864 44.5145C142.338 45.0969 142.711 45.625 142.982 46.099C142.846 46.573 142.596 46.9386 142.23 47.1959C141.878 47.4397 141.478 47.5616 141.031 47.5616C140.734 47.5616 140.476 47.5277 140.26 47.46C140.043 47.3923 139.853 47.2975 139.691 47.1756C139.528 47.0537 139.379 46.9048 139.244 46.7287C139.108 46.5527 138.98 46.3631 138.858 46.1599L137.152 43.4176H136.075ZM137.355 40.7159C137.869 40.7159 138.276 40.5873 138.574 40.33C138.871 40.0591 139.02 39.6664 139.02 39.1518C139.02 38.6372 138.851 38.2512 138.513 37.9939C138.188 37.7231 137.666 37.5876 136.948 37.5876C136.745 37.5876 136.583 37.5944 136.461 37.608C136.339 37.6215 136.204 37.6418 136.055 37.6689V40.7159H137.355Z" fill="#323941"/>
<path d="M156.071 46.9725C155.881 47.1621 155.604 47.3043 155.238 47.399C154.886 47.5074 154.46 47.5616 153.958 47.5616C153.457 47.5616 152.983 47.4871 152.537 47.3381C152.09 47.1891 151.724 46.8303 151.44 46.2615L149.429 42.1582C149.225 41.7384 149.043 41.3456 148.88 40.98C148.718 40.6008 148.542 40.1675 148.352 39.6799L148.23 39.7002C148.284 40.4315 148.311 41.1764 148.311 41.9347C148.325 42.6931 148.332 43.4379 148.332 44.1692V47.3178C148.183 47.3584 147.952 47.399 147.641 47.4397C147.343 47.4803 147.045 47.5006 146.747 47.5006C146.449 47.5006 146.185 47.4803 145.955 47.4397C145.725 47.399 145.535 47.3178 145.386 47.1959C145.237 47.074 145.122 46.9115 145.041 46.7084C144.96 46.4917 144.919 46.2141 144.919 45.8755V35.7188C145.109 35.448 145.4 35.2448 145.792 35.1094C146.185 34.974 146.605 34.9063 147.052 34.9063C147.553 34.9063 148.027 34.9875 148.474 35.15C148.934 35.299 149.3 35.6511 149.571 36.2063L151.602 40.3096C151.805 40.7295 151.988 41.129 152.151 41.5081C152.313 41.8738 152.489 42.3004 152.679 42.7879L152.78 42.7676C152.726 42.0363 152.692 41.305 152.679 40.5737C152.665 39.8424 152.658 39.1111 152.658 38.3799V35.0891C152.807 35.0485 153.031 35.0078 153.329 34.9672C153.64 34.9266 153.945 34.9063 154.243 34.9063C154.839 34.9063 155.292 35.0146 155.604 35.2313C155.915 35.4344 156.071 35.8678 156.071 36.5313V46.9725Z" fill="#323941"/>
<path d="M162.261 47.3178C162.112 47.3584 161.875 47.399 161.55 47.4397C161.238 47.4803 160.927 47.5006 160.615 47.5006C160.304 47.5006 160.026 47.4735 159.783 47.4194C159.552 47.3787 159.356 47.2975 159.193 47.1756C159.031 47.0537 158.909 46.8844 158.828 46.6678C158.747 46.4511 158.706 46.1667 158.706 45.8146V35.0891C158.855 35.062 159.092 35.0281 159.417 34.9875C159.742 34.9333 160.053 34.9063 160.351 34.9063C160.663 34.9063 160.934 34.9333 161.164 34.9875C161.408 35.0281 161.611 35.1094 161.773 35.2313C161.936 35.3532 162.058 35.5224 162.139 35.7391C162.22 35.9558 162.261 36.2402 162.261 36.5923V47.3178Z" fill="#323941"/>
<path d="M167.516 35.4547C167.746 35.3193 168.091 35.1906 168.552 35.0688C169.026 34.9469 169.5 34.8859 169.974 34.8859C170.651 34.8859 171.247 34.9875 171.761 35.1906C172.289 35.3802 172.628 35.6849 172.777 36.1048C173.021 36.809 173.285 37.6283 173.569 38.5627C173.853 39.4971 174.138 40.4654 174.422 41.4675C174.707 42.4561 174.984 43.4379 175.255 44.413C175.526 45.3745 175.763 46.2276 175.966 46.9725C175.804 47.1621 175.56 47.311 175.235 47.4194C174.91 47.5412 174.524 47.6022 174.077 47.6022C173.752 47.6022 173.474 47.5751 173.244 47.5209C173.027 47.4668 172.845 47.3855 172.696 47.2772C172.56 47.1688 172.445 47.0266 172.35 46.8506C172.269 46.6745 172.195 46.4714 172.127 46.2412L171.761 44.8396H168.084C167.976 45.2458 167.868 45.6656 167.759 46.099C167.651 46.5323 167.543 46.9522 167.434 47.3584C167.245 47.4261 167.042 47.4803 166.825 47.5209C166.622 47.5751 166.371 47.6022 166.073 47.6022C165.383 47.6022 164.868 47.4871 164.53 47.2569C164.205 47.0131 164.042 46.6813 164.042 46.2615C164.042 46.0719 164.069 45.8823 164.123 45.6927C164.177 45.5031 164.238 45.2797 164.306 45.0224C164.401 44.6567 164.53 44.2031 164.692 43.6614C164.868 43.1197 165.058 42.5374 165.261 41.9144C165.464 41.2779 165.681 40.6279 165.911 39.9643C166.141 39.3007 166.358 38.6778 166.561 38.0955C166.764 37.4996 166.947 36.9715 167.109 36.511C167.285 36.0506 167.421 35.6985 167.516 35.4547ZM169.953 38.0752C169.764 38.6439 169.547 39.2804 169.303 39.9846C169.073 40.6753 168.863 41.3795 168.674 42.0972H171.192C171.003 41.3659 170.806 40.655 170.603 39.9643C170.414 39.2601 170.238 38.6304 170.075 38.0752H169.953Z" fill="#323941"/>
</g>
<defs>
<clipPath id="clip0_2059_1344">
<rect width="216" height="62.9718" fill="white"/>
</clipPath>
</defs>
</svg>
